<svg width="17" height="17" viewBox="0 0 17 17" fill="none" xmlns="http://www.w3.org/2000/svg">
<g clip-path="url(#clip0_639_4936)">
<path d="M2.08333 1.04167H0V0H2.08333V1.04167ZM5.20833 1.04167H3.125V0H5.20833V1.04167ZM8.33333 1.04167H6.25V0H8.33333V1.04167ZM11.4583 1.04167H9.375V0H11.4583V1.04167ZM14.5833 1.04167H12.5V0H14.5833V1.04167ZM0 2.08333H1.04167V4.16667H0V2.08333ZM0 5.20833H1.04167V7.29167H0V5.20833ZM0 8.33333H1.04167V10.4167H0V8.33333ZM0 11.4583H1.04167V13.5417H0V11.4583ZM0 14.5833H1.04167V16.6667H0V14.5833ZM14.5833 15.625H16.6667V16.6667H14.5833V15.625ZM11.4583 15.625H13.5417V16.6667H11.4583V15.625ZM8.33333 15.625H10.4167V16.6667H8.33333V15.625ZM5.20833 15.625H7.29167V16.6667H5.20833V15.625ZM2.08333 15.625H4.16667V16.6667H2.08333V15.625ZM15.625 12.5H16.6667V14.5833H15.625V12.5ZM15.625 9.375H16.6667V11.4583H15.625V9.375ZM15.625 6.25H16.6667V8.33333H15.625V6.25ZM15.625 3.125H16.6667V5.20833H15.625V3.125ZM16.6667 0V2.08333H15.625V0H16.6667Z" fill="#111827"/>
</g>
<defs>
<clipPath id="clip0_639_4936">
<rect width="16.6667" height="16.6667" fill="white"/>
</clipPath>
</defs>
</svg>
