<svg width="21" height="20" viewBox="0 0 21 20" fill="none" xmlns="http://www.w3.org/2000/svg">
<path fill-rule="evenodd" clip-rule="evenodd" d="M3.16667 10C3.16667 5.85787 6.52453 2.50001 10.6667 2.50001C14.8088 2.50001 18.1667 5.85787 18.1667 10C18.1667 14.1421 14.8088 17.5 10.6667 17.5C6.52453 17.5 3.16667 14.1421 3.16667 10ZM10.6667 0.833344C5.60406 0.833344 1.5 4.9374 1.5 10C1.5 15.0626 5.60406 19.1667 10.6667 19.1667C15.7293 19.1667 19.8333 15.0626 19.8333 10C19.8333 4.9374 15.7293 0.833344 10.6667 0.833344ZM10.6667 5.83334C11.1269 5.83334 11.5 6.20644 11.5 6.66668V10C11.5 10.4602 11.1269 10.8333 10.6667 10.8333C10.2064 10.8333 9.83333 10.4602 9.83333 10V6.66668C9.83333 6.20644 10.2064 5.83334 10.6667 5.83334ZM9.83333 13.3333C9.83333 12.8731 10.2064 12.5 10.6667 12.5H10.675C11.1352 12.5 11.5083 12.8731 11.5083 13.3333C11.5083 13.7936 11.1352 14.1667 10.675 14.1667H10.6667C10.2064 14.1667 9.83333 13.7936 9.83333 13.3333Z" fill="#111827"/>
</svg>
