<svg width="21" height="20" viewBox="0 0 21 20" fill="none" xmlns="http://www.w3.org/2000/svg">
<g clip-path="url(#clip0_639_4717)">
<path fill-rule="evenodd" clip-rule="evenodd" d="M10.6667 1.58105C10.237 1.58105 9.81458 1.69179 9.44017 1.90259C9.06576 2.11338 8.752 2.41712 8.52916 2.78448L8.52915 2.78448L8.52677 2.78845L1.46844 14.5718L1.46835 14.5717L1.46167 14.5833C1.24338 14.9613 1.12788 15.3899 1.12666 15.8264C1.12544 16.263 1.23854 16.6922 1.4547 17.0714C1.67087 17.4507 1.98258 17.7667 2.35881 17.9881C2.73503 18.2095 3.16267 18.3285 3.59917 18.3333L3.59917 18.3333H3.60833H17.725V18.3334L17.7342 18.3333C18.1707 18.3285 18.5983 18.2095 18.9745 17.9881C19.3507 17.7667 19.6625 17.4507 19.8786 17.0714C20.0948 16.6922 20.2079 16.263 20.2067 15.8264C20.2054 15.3899 20.0899 14.9613 19.8717 14.5833L19.8717 14.5832L19.8649 14.5718L12.8066 2.78845L12.8066 2.78844L12.8042 2.78448C12.5813 2.41712 12.2676 2.11338 11.8932 1.90259C11.5188 1.69179 11.0963 1.58105 10.6667 1.58105ZM10.2578 3.3549C10.3826 3.28463 10.5234 3.24772 10.6667 3.24772C10.8099 3.24772 10.9507 3.28463 11.0755 3.3549C11.1997 3.42484 11.3039 3.52549 11.3781 3.6472L11.3792 3.64886L18.4311 15.4215C18.5021 15.5464 18.5396 15.6874 18.54 15.8311C18.5404 15.9766 18.5027 16.1197 18.4307 16.2461C18.3586 16.3725 18.2547 16.4779 18.1293 16.5517C18.005 16.6248 17.8638 16.6644 17.7196 16.6667H3.61368C3.46951 16.6644 3.32835 16.6248 3.20403 16.5517C3.07863 16.4779 2.97472 16.3725 2.90267 16.2461C2.83061 16.1197 2.79291 15.9766 2.79332 15.8311C2.79372 15.6874 2.83126 15.5464 2.90224 15.4215L9.95416 3.64886L9.95518 3.64719C10.0294 3.52549 10.1336 3.42484 10.2578 3.3549ZM10.6666 6.66668C11.1269 6.66668 11.5 7.03977 11.5 7.50001V10.8333C11.5 11.2936 11.1269 11.6667 10.6666 11.6667C10.2064 11.6667 9.83331 11.2936 9.83331 10.8333V7.50001C9.83331 7.03977 10.2064 6.66668 10.6666 6.66668ZM9.83331 14.1667C9.83331 13.7064 10.2064 13.3333 10.6666 13.3333H10.675C11.1352 13.3333 11.5083 13.7064 11.5083 14.1667C11.5083 14.6269 11.1352 15 10.675 15H10.6666C10.2064 15 9.83331 14.6269 9.83331 14.1667Z" fill="#111827"/>
</g>
<defs>
<clipPath id="clip0_639_4717">
<rect width="20" height="20" fill="white" transform="translate(0.666626)"/>
</clipPath>
</defs>
</svg>
