<svg width="21" height="20" viewBox="0 0 21 20" fill="none" xmlns="http://www.w3.org/2000/svg">
<path fill-rule="evenodd" clip-rule="evenodd" d="M11.2559 3.57742C10.9305 3.25198 10.4028 3.25198 10.0774 3.57742C9.75197 3.90286 9.75197 4.4305 10.0774 4.75593L14.4882 9.16668H4.83333C4.3731 9.16668 4 9.53977 4 10C4 10.4602 4.3731 10.8333 4.83333 10.8333H14.4882L10.0774 15.2441C9.75197 15.5695 9.75197 16.0972 10.0774 16.4226C10.4028 16.748 10.9305 16.748 11.2559 16.4226L17.0886 10.5899L17.0893 10.5893C17.0911 10.5875 17.0929 10.5856 17.0947 10.5838C17.0927 10.5858 17.0906 10.5879 17.0886 10.5899M17.0947 9.41622C17.1719 9.49484 17.2304 9.58497 17.2701 9.68102C17.2289 9.58158 17.1689 9.49185 17.0947 9.41622ZM11.2559 3.57742L17.0884 9.40991L11.2559 3.57742Z" fill="#111827"/>
</svg>
