<svg width="21" height="20" viewBox="0 0 21 20" fill="none" xmlns="http://www.w3.org/2000/svg">
<path fill-rule="evenodd" clip-rule="evenodd" d="M10.3667 3.38999C10.2367 3.43416 9.81248 3.84416 7.18832 6.46249C3.90082 9.74166 4.00082 9.63083 4.00082 9.99999C4.00082 10.3692 3.90248 10.26 7.17165 13.5217C8.82832 15.1742 10.2342 16.5517 10.2958 16.5825C10.675 16.7733 11.1675 16.62 11.3892 16.2433C11.47 16.1058 11.4833 16.0483 11.4825 15.8333C11.4825 15.6567 11.4642 15.5492 11.4208 15.4667C11.3875 15.4025 10.345 14.3342 9.10498 13.0917L6.85082 10.8333L11.75 10.8317C15.7567 10.8308 16.6725 10.8225 16.775 10.7858C16.9592 10.72 17.12 10.585 17.2242 10.4075C17.3033 10.2733 17.3167 10.2133 17.3167 9.99999C17.3167 9.78833 17.3025 9.72666 17.2267 9.59666C17.119 9.41222 16.9458 9.27507 16.7417 9.21249C16.6158 9.17416 15.7492 9.16666 11.72 9.16666H6.85082L9.10498 6.90833C10.345 5.66666 11.3875 4.59749 11.4208 4.53333C11.4642 4.45083 11.4825 4.34333 11.4825 4.16666C11.4833 3.95416 11.47 3.89333 11.3933 3.76333C11.2938 3.58989 11.1362 3.45726 10.9482 3.38893C10.7603 3.3206 10.5543 3.32097 10.3667 3.38999Z" fill="#111827"/>
</svg>
