<svg width="21" height="20" viewBox="0 0 21 20" fill="none" xmlns="http://www.w3.org/2000/svg">
<path fill-rule="evenodd" clip-rule="evenodd" d="M10.3166 3.41332C10.1825 3.47749 9.56079 4.08332 7.14496 6.50499C5.49246 8.16165 4.11496 9.56749 4.08413 9.62915C3.89329 10.0083 4.04663 10.5008 4.42329 10.7225C4.56079 10.8033 4.61829 10.8167 4.83329 10.8158C5.00996 10.8158 5.11746 10.7975 5.19996 10.7542C5.26413 10.7208 6.33246 9.67915 7.57413 8.43915L9.83246 6.18499L9.84079 11.1367L9.84996 16.0883L9.95079 16.2525C10.0244 16.3769 10.1291 16.4799 10.2546 16.5515C10.3801 16.6231 10.5221 16.6608 10.6666 16.6608C10.8111 16.6608 10.9531 16.6231 11.0787 16.5515C11.2042 16.4799 11.3089 16.3769 11.3825 16.2525L11.4833 16.0883L11.4925 11.1367L11.5008 6.18499L13.7591 8.43915C15.0008 9.67915 16.0691 10.7208 16.1333 10.7542C16.2158 10.7975 16.3233 10.8158 16.5 10.8158C16.715 10.8167 16.7725 10.8033 16.91 10.7225C17.095 10.6142 17.2508 10.415 17.3041 10.22C17.3491 10.0517 17.3241 9.77832 17.2491 9.62915C17.2183 9.56749 15.8408 8.16165 14.1883 6.50499C11.7725 4.08332 11.1508 3.47749 11.0166 3.41332C10.9075 3.36068 10.7878 3.33334 10.6666 3.33334C10.5454 3.33334 10.4258 3.36068 10.3166 3.41332Z" fill="#111827"/>
</svg>
