<svg width="21" height="20" viewBox="0 0 21 20" fill="none" xmlns="http://www.w3.org/2000/svg">
<path fill-rule="evenodd" clip-rule="evenodd" d="M12.7499 1.07373C10.7352 0.603549 8.62061 0.828748 6.75008 1.71271C4.87954 2.59668 3.36304 4.08742 2.44716 5.94254C1.53128 7.79766 1.26989 9.90805 1.7055 11.9306C2.1411 13.9531 3.24807 15.7688 4.84642 17.0824C6.44477 18.396 8.44049 19.1303 10.5091 19.1658C12.5777 19.2014 14.5974 18.5362 16.24 17.2783C16.6054 16.9985 16.6748 16.4754 16.395 16.11C16.1151 15.7446 15.5921 15.6752 15.2267 15.9551C13.8828 16.9842 12.2302 17.5285 10.5377 17.4994C8.84525 17.4703 7.21239 16.8695 5.90465 15.7948C4.59691 14.72 3.6912 13.2344 3.3348 11.5797C2.9784 9.92487 3.19226 8.19818 3.94162 6.68036C4.69097 5.16253 5.93175 3.94283 7.46219 3.21959C8.99263 2.49635 10.7227 2.31209 12.3712 2.69679C14.0196 3.08148 15.4894 4.0125 16.5416 5.33846C17.5938 6.66441 18.1666 8.3073 18.1667 10V10.0001V10.8333C18.1667 11.2754 17.9911 11.6993 17.6785 12.0119C17.366 12.3244 16.942 12.5 16.5 12.5C16.058 12.5 15.6341 12.3244 15.3215 12.0119C15.0089 11.6993 14.8333 11.2754 14.8333 10.8333V6.66668C14.8333 6.20644 14.4602 5.83335 14 5.83335C13.5399 5.83335 13.1668 6.20628 13.1667 6.66639C12.4703 6.14331 11.6047 5.83334 10.6667 5.83334C8.36548 5.83334 6.5 7.69882 6.5 10C6.5 12.3012 8.36548 14.1667 10.6667 14.1667C11.9067 14.1667 13.0203 13.6249 13.7836 12.7652C13.8906 12.9157 14.0107 13.058 14.143 13.1904C14.7681 13.8155 15.616 14.1667 16.5 14.1667C17.3841 14.1667 18.2319 13.8155 18.857 13.1904C19.4822 12.5652 19.8333 11.7174 19.8333 10.8333V10V9.99996C19.8332 7.93107 19.1332 5.92306 17.8472 4.30245C16.5611 2.68183 14.7647 1.54392 12.7499 1.07373ZM8.16667 10C8.16667 8.6193 9.28596 7.50001 10.6667 7.50001C12.0474 7.50001 13.1667 8.6193 13.1667 10C13.1667 11.3807 12.0474 12.5 10.6667 12.5C9.28596 12.5 8.16667 11.3807 8.16667 10Z" fill="#111827"/>
</svg>
