<svg width="21" height="20" viewBox="0 0 21 20" fill="none" xmlns="http://www.w3.org/2000/svg">
<path fill-rule="evenodd" clip-rule="evenodd" d="M10.6666 0.833344C9.11952 0.833344 7.63579 1.44793 6.54183 2.54189C5.44787 3.63585 4.83329 5.11958 4.83329 6.66668C4.83329 9.46056 4.23573 11.1955 3.68504 12.2051C3.40854 12.712 3.13931 13.0446 2.95228 13.242C2.85855 13.3409 2.7849 13.4065 2.74055 13.4435C2.71837 13.462 2.70349 13.4733 2.69708 13.4781L2.69469 13.4799C2.39596 13.6851 2.26376 14.0604 2.36904 14.4082C2.47546 14.7596 2.7994 15 3.16662 15H18.1666C18.5338 15 18.8578 14.7596 18.9642 14.4082C19.0695 14.0604 18.9373 13.6851 18.6385 13.4799L18.6362 13.4781C18.6297 13.4733 18.6149 13.462 18.5927 13.4435C18.5483 13.4065 18.4747 13.3409 18.381 13.242C18.1939 13.0446 17.9247 12.712 17.6482 12.2051C17.0975 11.1955 16.5 9.46056 16.5 6.66668C16.5 5.11958 15.8854 3.63585 14.7914 2.54189C13.6974 1.44793 12.2137 0.833344 10.6666 0.833344ZM16.185 13.0032C16.2485 13.1195 16.3121 13.2294 16.3755 13.3333H4.95772C5.02113 13.2294 5.08478 13.1195 5.1482 13.0032C5.84751 11.7212 6.49995 9.70613 6.49995 6.66668C6.49995 5.56161 6.93894 4.5018 7.72034 3.7204C8.50174 2.939 9.56155 2.50001 10.6666 2.50001C11.7717 2.50001 12.8315 2.939 13.6129 3.7204C14.3943 4.5018 14.8333 5.56161 14.8333 6.66668C14.8333 9.70613 15.4857 11.7212 16.185 13.0032ZM9.9458 17.0819C9.71487 16.6838 9.20493 16.5482 8.80683 16.7792C8.40872 17.0101 8.2732 17.5201 8.50414 17.9182C8.7239 18.297 9.03933 18.6115 9.41885 18.8301C9.79837 19.0487 10.2287 19.1637 10.6666 19.1637C11.1046 19.1637 11.5349 19.0487 11.9144 18.8301C12.2939 18.6115 12.6094 18.297 12.8291 17.9182C13.0601 17.5201 12.9246 17.0101 12.5264 16.7792C12.1283 16.5482 11.6184 16.6838 11.3875 17.0819C11.3142 17.2082 11.2091 17.313 11.0826 17.3858C10.9561 17.4587 10.8126 17.4971 10.6666 17.4971C10.5206 17.4971 10.3772 17.4587 10.2507 17.3858C10.1242 17.313 10.0191 17.2082 9.9458 17.0819Z" fill="#111827"/>
</svg>
