<svg width="20" height="20" viewBox="0 0 20 20" fill="none" xmlns="http://www.w3.org/2000/svg">
<g clip-path="url(#clip0_639_4720)">
<path fill-rule="evenodd" clip-rule="evenodd" d="M8.34712 2.67962C9.92468 2.3232 11.5752 2.48627 13.0525 3.14451C13.4729 3.33183 13.9655 3.14288 14.1528 2.72249C14.3402 2.3021 14.1512 1.80945 13.7308 1.62213C11.9252 0.817608 9.90794 0.6183 7.97982 1.05393C6.0517 1.48957 4.31605 2.5368 3.03174 4.03945C1.74742 5.5421 0.983245 7.41965 0.853183 9.39209C0.723122 11.3645 1.23414 13.3262 2.31003 14.9844C3.38591 16.6427 4.96902 17.9088 6.82324 18.5938C8.67747 19.2789 10.7035 19.3462 12.5991 18.7857C14.4947 18.2252 16.1583 17.067 17.3419 15.4838C18.5254 13.9006 19.1655 11.9772 19.1667 10.0005V9.99999V9.23332C19.1667 8.77309 18.7936 8.39999 18.3333 8.39999C17.8731 8.39999 17.5 8.77309 17.5 9.23332V9.99951C17.4991 11.6168 16.9754 13.1905 16.007 14.4859C15.0386 15.7812 13.6774 16.7289 12.1265 17.1874C10.5756 17.646 8.91793 17.5909 7.40083 17.0305C5.88374 16.47 4.58847 15.4341 3.7082 14.0773C2.82793 12.7205 2.40982 11.1156 2.51624 9.50175C2.62265 7.88794 3.24789 6.35176 4.29869 5.12232C5.3495 3.89288 6.76957 3.03605 8.34712 2.67962ZM18.9229 3.92228C19.2481 3.59668 19.2479 3.06905 18.9223 2.74377C18.5967 2.4185 18.069 2.41876 17.7438 2.74436L9.99969 10.4962L8.08924 8.58573C7.7638 8.2603 7.23616 8.2603 6.91072 8.58573C6.58529 8.91117 6.58529 9.43881 6.91072 9.76425L9.41072 12.2642C9.56706 12.4206 9.7791 12.5084 10.0002 12.5083C10.2213 12.5083 10.4333 12.4204 10.5895 12.264L18.9229 3.92228Z" fill="#111827"/>
</g>
<defs>
<clipPath id="clip0_639_4720">
<rect width="20" height="20" fill="white"/>
</clipPath>
</defs>
</svg>
