<svg width="20" height="20" viewBox="0 0 20 20" fill="none" xmlns="http://www.w3.org/2000/svg">
<path fill-rule="evenodd" clip-rule="evenodd" d="M3.57743 3.5774C3.73371 3.42112 3.94567 3.33332 4.16669 3.33332H13.3334C13.7936 3.33332 14.1667 2.96023 14.1667 2.49999C14.1667 2.03975 13.7936 1.66666 13.3334 1.66666H4.16669C3.50365 1.66666 2.86776 1.93005 2.39892 2.39889C1.93008 2.86773 1.66669 3.50362 1.66669 4.16666V15.8333C1.66669 16.4964 1.93008 17.1322 2.39892 17.6011C2.86776 18.0699 3.50365 18.3333 4.16669 18.3333H15.8334C16.4964 18.3333 17.1323 18.0699 17.6011 17.6011C18.07 17.1322 18.3334 16.4964 18.3334 15.8333V9.99999C18.3334 9.53975 17.9603 9.16666 17.5 9.16666C17.0398 9.16666 16.6667 9.53975 16.6667 9.99999V15.8333C16.6667 16.0543 16.5789 16.2663 16.4226 16.4226C16.2663 16.5789 16.0544 16.6667 15.8334 16.6667H4.16669C3.94567 16.6667 3.73371 16.5789 3.57743 16.4226C3.42115 16.2663 3.33335 16.0543 3.33335 15.8333V4.16666C3.33335 3.94564 3.42115 3.73368 3.57743 3.5774ZM18.9226 3.92258C19.248 3.59714 19.248 3.0695 18.9226 2.74407C18.5972 2.41863 18.0695 2.41863 17.7441 2.74407L10 10.4881L8.08928 8.5774C7.76384 8.25196 7.2362 8.25196 6.91076 8.5774C6.58533 8.90284 6.58533 9.43047 6.91076 9.75591L9.41076 12.2559C9.7362 12.5813 10.2638 12.5813 10.5893 12.2559L18.9226 3.92258Z" fill="#111827"/>
</svg>
