<svg width="20" height="20" viewBox="0 0 20 20" fill="none" xmlns="http://www.w3.org/2000/svg">
<path fill-rule="evenodd" clip-rule="evenodd" d="M7.25593 5.58925C7.58137 5.26381 7.58137 4.73617 7.25593 4.41073C6.9305 4.0853 6.40286 4.0853 6.07742 4.41073L1.07742 9.41073C0.751984 9.73617 0.751984 10.2638 1.07742 10.5892L6.07742 15.5892C6.40286 15.9147 6.9305 15.9147 7.25593 15.5892C7.58137 15.2638 7.58137 14.7362 7.25593 14.4107L2.84519 9.99999L7.25593 5.58925ZM13.9226 4.41073C13.5972 4.0853 13.0695 4.0853 12.7441 4.41073C12.4187 4.73617 12.4187 5.26381 12.7441 5.58925L17.1548 9.99999L12.7441 14.4107C12.4187 14.7362 12.4187 15.2638 12.7441 15.5892C13.0695 15.9147 13.5972 15.9147 13.9226 15.5892L18.9226 10.5892C19.248 10.2638 19.248 9.73617 18.9226 9.41073L13.9226 4.41073Z" fill="#111827"/>
</svg>
