<svg width="20" height="20" viewBox="0 0 20 20" fill="none" xmlns="http://www.w3.org/2000/svg">
<g clip-path="url(#clip0_639_4719)">
<path fill-rule="evenodd" clip-rule="evenodd" d="M2.74406 2.74409C2.90034 2.58781 3.1123 2.50001 3.33331 2.50001H10.8333C11.0543 2.50001 11.2663 2.58781 11.4226 2.74409C11.5788 2.90037 11.6666 3.11233 11.6666 3.33334V4.16668C11.6666 4.62691 12.0397 5.00001 12.5 5.00001C12.9602 5.00001 13.3333 4.62691 13.3333 4.16668V3.33334C13.3333 2.6703 13.0699 2.03442 12.6011 1.56558C12.1322 1.09674 11.4964 0.833344 10.8333 0.833344H3.33331C2.67027 0.833344 2.03439 1.09674 1.56555 1.56558C1.0967 2.03442 0.833313 2.6703 0.833313 3.33334V10.8333C0.833313 11.4964 1.09671 12.1323 1.56555 12.6011C2.03439 13.07 2.67027 13.3333 3.33331 13.3333H4.16665C4.62688 13.3333 4.99998 12.9602 4.99998 12.5C4.99998 12.0398 4.62688 11.6667 4.16665 11.6667H3.33331C3.1123 11.6667 2.90034 11.5789 2.74406 11.4226C2.58778 11.2663 2.49998 11.0544 2.49998 10.8333V3.33334C2.49998 3.11233 2.58778 2.90037 2.74406 2.74409ZM8.33331 9.16668C8.33331 8.70644 8.70641 8.33334 9.16665 8.33334H16.6666C17.1269 8.33334 17.5 8.70644 17.5 9.16668V16.6667C17.5 17.1269 17.1269 17.5 16.6666 17.5H9.16665C8.70641 17.5 8.33331 17.1269 8.33331 16.6667V9.16668ZM9.16665 6.66668C7.78593 6.66668 6.66665 7.78597 6.66665 9.16668V16.6667C6.66665 18.0474 7.78593 19.1667 9.16665 19.1667H16.6666C18.0474 19.1667 19.1666 18.0474 19.1666 16.6667V9.16668C19.1666 7.78597 18.0474 6.66668 16.6666 6.66668H9.16665Z" fill="#111827"/>
</g>
<defs>
<clipPath id="clip0_639_4719">
<rect width="20" height="20" fill="white"/>
</clipPath>
</defs>
</svg>
