<svg width="20" height="21" viewBox="0 0 20 21" fill="none" xmlns="http://www.w3.org/2000/svg">
<path fill-rule="evenodd" clip-rule="evenodd" d="M9.6946 0.0474121C9.45567 0.127242 9.25367 0.290805 9.12589 0.507915L9.01767 0.691875L9.00685 5.63957L8.99724 10.5873L7.26344 8.86189C5.7124 7.31686 5.5104 7.12929 5.33365 7.07038C5.11032 6.9889 4.86529 6.98951 4.64237 7.07212C4.41945 7.15472 4.23318 7.31392 4.11687 7.52126C4.02429 7.67757 4.00866 7.75091 4.00866 8.00581C4.00986 8.21863 4.0315 8.34848 4.0832 8.44707C4.12408 8.52403 5.33125 9.76606 6.76807 11.2065C9.60683 14.0549 9.56355 14.0176 10 14.0176C10.4365 14.0176 10.3932 14.0549 13.2319 11.2065C14.6688 9.76606 15.8759 8.52403 15.9168 8.44707C15.9685 8.34848 15.9901 8.21863 15.9913 8.00581C15.9913 7.75091 15.9757 7.67757 15.8831 7.52126C15.7668 7.31392 15.5806 7.15472 15.3576 7.07212C15.1347 6.98951 14.8897 6.9889 14.6663 7.07038C14.4896 7.12929 14.2876 7.31686 12.7366 8.86189L11.0028 10.5873L10.9931 5.63957L10.9823 0.691875L10.8741 0.507915C10.76 0.3077 10.5805 0.152732 10.3659 0.0689138C10.1512 -0.0149046 9.91422 -0.0224947 9.6946 0.0474121ZM0.676927 12.071C0.437989 12.1508 0.235991 12.3144 0.108212 12.5315L0 12.7154V17.5645L0.0937839 17.8651C0.242083 18.3486 0.506596 18.7884 0.864183 19.146C1.22177 19.5035 1.66153 19.7681 2.145 19.9164L2.44559 20.0101H17.5544L17.855 19.9164C18.3385 19.7681 18.7782 19.5035 19.1358 19.146C19.4934 18.7884 19.7579 18.3486 19.9062 17.8651L20 17.5645V12.7154L19.8906 12.5291C19.8015 12.3767 19.674 12.2502 19.5209 12.1624C19.3677 12.0745 19.1942 12.0283 19.0177 12.0283C18.8411 12.0283 18.6676 12.0745 18.5145 12.1624C18.3614 12.2502 18.2339 12.3767 18.1448 12.5291L18.0354 12.7154L18.0161 14.9999C18.0005 16.7037 17.9824 17.3133 17.9452 17.3974C17.85 17.6055 17.6941 17.7799 17.4979 17.8976L17.3139 18.0058H2.68607L2.5021 17.8976C2.30591 17.7799 2.14998 17.6055 2.05483 17.3974C2.01755 17.3133 1.99952 16.7049 1.98389 14.9999L1.96465 12.7154L1.85644 12.5315C1.74229 12.3313 1.56287 12.1763 1.34818 12.0925C1.13349 12.0087 0.89654 12.0011 0.676927 12.071Z" fill="black"/>
</svg>
