<svg width="20" height="20" viewBox="0 0 20 20" fill="none" xmlns="http://www.w3.org/2000/svg">
<path fill-rule="evenodd" clip-rule="evenodd" d="M14.3392 3.50594C14.5145 3.3307 14.7521 3.23225 15 3.23225C15.1227 3.23225 15.2442 3.25642 15.3576 3.30338C15.4709 3.35034 15.574 3.41917 15.6607 3.50594C15.7475 3.59271 15.8163 3.69572 15.8633 3.80909C15.9102 3.92246 15.9344 4.04397 15.9344 4.16668C15.9344 4.28939 15.9102 4.4109 15.8633 4.52427C15.8163 4.63764 15.7475 4.74066 15.6607 4.82743L5.40727 15.0809L3.64528 15.5214L4.08578 13.7594L14.3392 3.50594ZM15 1.56558C14.3101 1.56558 13.6485 1.83963 13.1607 2.32743L2.74405 12.7441C2.63726 12.8509 2.56149 12.9847 2.52486 13.1312L1.69152 16.4646C1.62053 16.7485 1.70374 17.049 1.91072 17.2559C2.1177 17.4629 2.41811 17.5461 2.70209 17.4751L6.03542 16.6418C6.18195 16.6052 6.31577 16.5294 6.42257 16.4226L16.8392 6.00594C17.0808 5.7644 17.2724 5.47766 17.4031 5.16208C17.5338 4.8465 17.6011 4.50826 17.6011 4.16668C17.6011 3.8251 17.5338 3.48686 17.4031 3.17128C17.2724 2.8557 17.0808 2.56896 16.8392 2.32743C16.5977 2.08589 16.311 1.8943 15.9954 1.76358C15.6798 1.63286 15.3416 1.56558 15 1.56558ZM9.99998 15.8333C9.53974 15.8333 9.16664 16.2064 9.16664 16.6667C9.16664 17.1269 9.53974 17.5 9.99998 17.5H17.5C17.9602 17.5 18.3333 17.1269 18.3333 16.6667C18.3333 16.2064 17.9602 15.8333 17.5 15.8333H9.99998Z" fill="#111827"/>
</svg>
