<svg width="20" height="20" viewBox="0 0 20 20" fill="none" xmlns="http://www.w3.org/2000/svg">
<g clip-path="url(#clip0_639_4700)">
<path fill-rule="evenodd" clip-rule="evenodd" d="M16.006 2.6726C16.1812 2.49735 16.4189 2.39891 16.6667 2.39891C16.9145 2.39891 17.1522 2.49735 17.3274 2.6726C17.5027 2.84784 17.6011 3.08551 17.6011 3.33334C17.6011 3.58117 17.5027 3.81884 17.3274 3.99408L9.574 11.7475L7.81201 12.188L8.25251 10.426L16.006 2.6726ZM16.6667 0.732239C15.9769 0.732239 15.3153 1.00628 14.8274 1.49408L6.91078 9.41075C6.80398 9.51755 6.72822 9.65137 6.69159 9.79789L5.85825 13.1312C5.78726 13.4152 5.87047 13.7156 6.07745 13.9226C6.28443 14.1296 6.58484 14.2128 6.86882 14.1418L10.2022 13.3085C10.3487 13.2718 10.4825 13.1961 10.5893 13.0893L18.506 5.1726C18.9938 4.68479 19.2678 4.02319 19.2678 3.33334C19.2678 2.64348 18.9938 1.98188 18.506 1.49408C18.0182 1.00628 17.3566 0.732239 16.6667 0.732239ZM3.33337 2.5C2.67033 2.5 2.03445 2.7634 1.56561 3.23224C1.09676 3.70108 0.833374 4.33696 0.833374 5V16.6667C0.833374 17.3297 1.09676 17.9656 1.56561 18.4344C2.03445 18.9033 2.67033 19.1667 3.33337 19.1667H15C15.6631 19.1667 16.299 18.9033 16.7678 18.4344C17.2366 17.9656 17.5 17.3297 17.5 16.6667V10.8333C17.5 10.3731 17.1269 10 16.6667 10C16.2065 10 15.8334 10.3731 15.8334 10.8333V16.6667C15.8334 16.8877 15.7456 17.0996 15.5893 17.2559C15.433 17.4122 15.2211 17.5 15 17.5H3.33337C3.11236 17.5 2.9004 17.4122 2.74412 17.2559C2.58784 17.0996 2.50004 16.8877 2.50004 16.6667V5C2.50004 4.77899 2.58784 4.56703 2.74412 4.41075C2.9004 4.25447 3.11236 4.16667 3.33337 4.16667H9.16671C9.62694 4.16667 10 3.79358 10 3.33334C10 2.8731 9.62694 2.5 9.16671 2.5H3.33337Z" fill="#111827"/>
</g>
<defs>
<clipPath id="clip0_639_4700">
<rect width="20" height="20" fill="white"/>
</clipPath>
</defs>
</svg>
