<svg width="20" height="20" viewBox="0 0 20 20" fill="none" xmlns="http://www.w3.org/2000/svg">
<path fill-rule="evenodd" clip-rule="evenodd" d="M12.2458 1.71418C12.0473 1.78044 11.8794 1.91631 11.7733 2.09668C11.6975 2.22668 11.6833 2.28834 11.6833 2.50001C11.6833 2.71334 11.6966 2.77334 11.7758 2.90751C11.88 3.08501 12.0408 3.22001 12.225 3.28584C12.3225 3.32084 12.695 3.33084 13.9166 3.33168L15.4833 3.33334L11.5616 7.25834C9.40496 9.41668 7.61246 11.2358 7.57912 11.3C7.53579 11.3825 7.51746 11.49 7.51746 11.6667C7.51662 11.8817 7.52996 11.9392 7.61079 12.0767C7.71912 12.2617 7.91829 12.4175 8.11329 12.4708C8.28162 12.5158 8.55496 12.4908 8.70412 12.4158C8.76579 12.385 10.5825 10.5958 12.7408 8.44001L16.6641 4.51918L16.6741 6.13751L16.6833 7.75501L16.7841 7.91918C16.8577 8.04356 16.9624 8.14662 17.0879 8.21822C17.2134 8.28981 17.3554 8.32746 17.5 8.32746C17.6445 8.32746 17.7865 8.28981 17.912 8.21822C18.0375 8.14662 18.1422 8.04356 18.2158 7.91918L18.3166 7.75501L18.3258 5.05251C18.3341 2.60501 18.33 2.33668 18.28 2.20501C18.2018 2.00168 18.0476 1.83672 17.85 1.74501L17.6833 1.66751L15.0333 1.66918C12.9641 1.67084 12.3533 1.68084 12.2458 1.71418ZM3.74912 4.20251C2.81912 4.35834 2.05079 5.04001 1.76162 5.96668L1.68329 6.21668V16.2833L1.76162 16.5333C1.88483 16.9352 2.10467 17.3008 2.40191 17.5981C2.69915 17.8953 3.06472 18.1151 3.46662 18.2383L3.71662 18.3167H13.7833L14.0333 18.2383C14.4352 18.1151 14.8008 17.8953 15.098 17.5981C15.3952 17.3008 15.6151 16.9352 15.7383 16.5333L15.8166 16.2833V10.5833L15.7258 10.4283C15.6515 10.3018 15.5455 10.1969 15.4181 10.124C15.2908 10.0511 15.1467 10.0128 15 10.0128C14.8532 10.0128 14.7091 10.0511 14.5818 10.124C14.4544 10.1969 14.3484 10.3018 14.2741 10.4283L14.1833 10.5833L14.1666 13.3167C14.1541 15.4025 14.14 16.0725 14.1083 16.1442C14.0285 16.3167 13.8991 16.4615 13.7366 16.56L13.5833 16.65H3.91662L3.76329 16.56C3.67186 16.5043 3.58998 16.4342 3.52079 16.3525C3.32246 16.0925 3.33329 16.3792 3.33329 11.2683C3.33329 5.98501 3.31496 6.35668 3.58579 6.08584C3.84829 5.82334 3.72579 5.83334 6.69746 5.83168C8.79829 5.83084 9.34162 5.82168 9.44162 5.78584C9.62579 5.72001 9.78662 5.58501 9.89079 5.40751C9.96996 5.27334 9.98329 5.21334 9.98329 5.00001C9.98329 4.78834 9.96912 4.72668 9.89329 4.59668C9.83648 4.50384 9.76499 4.42082 9.68162 4.35084C9.43579 4.16334 9.48496 4.16668 6.58662 4.17084C5.11829 4.17251 3.84079 4.18751 3.74912 4.20251Z" fill="#111827"/>
</svg>
