<svg width="20" height="20" viewBox="0 0 20 20" fill="none" xmlns="http://www.w3.org/2000/svg">
<g clip-path="url(#clip0_639_4730)">
<path fill-rule="evenodd" clip-rule="evenodd" d="M1.42259 0.244078C1.09715 -0.0813592 0.569515 -0.0813592 0.244078 0.244078C-0.0813591 0.569515 -0.0813591 1.09715 0.244078 1.42259L3.80706 4.98557C2.29975 6.28305 1.04196 7.84875 0.099037 9.60598C-0.0289912 9.84457 -0.0331156 10.1305 0.0879774 10.3727L0.833333 10C0.0879774 10.3727 0.0881178 10.373 0.0882709 10.3733L0.0886418 10.374L0.0896158 10.3759L0.0924918 10.3816L0.101948 10.4001C0.109896 10.4156 0.121131 10.4372 0.135628 10.4646C0.164617 10.5194 0.206686 10.5973 0.261643 10.695C0.371493 10.8903 0.533208 11.1654 0.74528 11.4938C1.16839 12.1489 1.79736 13.0245 2.62122 13.9033C4.25373 15.6446 6.75041 17.5 10 17.5V17.5001L10.0136 17.4999C11.7373 17.4717 13.4135 16.9613 14.8551 16.0336L18.5774 19.7559C18.9028 20.0814 19.4305 20.0814 19.7559 19.7559C20.0814 19.4305 20.0814 18.9028 19.7559 18.5774L15.5476 14.3691C15.5416 14.3629 15.5356 14.3569 15.5294 14.3509L12.3594 11.1809C12.3573 11.1788 12.3553 11.1767 12.3532 11.1747L8.82528 7.64677C8.82325 7.64471 8.8212 7.64267 8.81915 7.64064L5.64755 4.46904C5.6416 4.46291 5.63558 4.45688 5.62948 4.45097L1.42259 0.244078ZM4.98925 6.16776C3.70859 7.25114 2.62446 8.54847 1.78548 10.0026C1.87637 10.1596 1.9966 10.3592 2.14535 10.5896C2.52953 11.1844 3.09847 11.9755 3.83711 12.7634C5.32829 14.354 7.41261 15.8307 9.99322 15.8333C11.2811 15.8111 12.5364 15.4603 13.6428 14.8213L11.7081 12.8866C11.5758 12.9696 11.4376 13.0433 11.2943 13.1071C10.8854 13.2893 10.444 13.3873 9.99644 13.3952C9.54888 13.4031 9.1043 13.3207 8.68924 13.1531C8.27419 12.9854 7.89714 12.7359 7.58062 12.4194C7.26409 12.1029 7.01456 11.7258 6.84691 11.3108C6.67926 10.8957 6.59693 10.4511 6.60482 10.0036C6.61272 9.55599 6.71069 9.11459 6.89287 8.70571C6.95671 8.56243 7.03044 8.42417 7.11337 8.29188L4.98925 6.16776ZM8.35658 9.53509C8.3031 9.69545 8.27423 9.86332 8.27123 10.033C8.26728 10.2567 8.30845 10.479 8.39227 10.6866C8.4761 10.8941 8.60086 11.0826 8.75913 11.2409C8.91739 11.3991 9.10591 11.5239 9.31344 11.6077C9.52097 11.6915 9.74326 11.7327 9.96704 11.7288C10.1367 11.7258 10.3046 11.6969 10.4649 11.6434L8.35658 9.53509ZM8.43993 4.34473C8.95064 4.22519 9.47353 4.16543 9.99804 4.16666L10 4.16667C12.5837 4.16667 14.6704 5.64463 16.1629 7.23662C16.9015 8.0245 17.4705 8.81557 17.8547 9.41044C18.0036 9.64113 18.124 9.84103 18.215 9.99814C17.7838 10.7485 17.2866 11.4592 16.729 12.1218C16.4327 12.4739 16.478 12.9996 16.8301 13.296C17.1823 13.5923 17.708 13.547 18.0043 13.1949C18.7325 12.3294 19.3684 11.3903 19.9016 10.3928C20.029 10.1545 20.0329 9.86908 19.912 9.62732L19.1667 10C19.912 9.62732 19.9119 9.62704 19.9117 9.62673L19.9114 9.62599L19.9104 9.62406L19.9075 9.61836L19.8981 9.59985C19.8901 9.58439 19.8789 9.56276 19.8644 9.53536C19.8354 9.48058 19.7933 9.40269 19.7384 9.30499C19.6285 9.1097 19.4668 8.8346 19.2547 8.50623C18.8316 7.85109 18.2026 6.9755 17.3788 6.09671C15.7464 4.35554 13.2501 2.50037 10.001 2.5H10V3.33333L10.002 2.5L10.001 2.5C9.34759 2.49854 8.69626 2.57302 8.06007 2.72193C7.61195 2.82682 7.3337 3.27514 7.4386 3.72326C7.54349 4.17138 7.9918 4.44963 8.43993 4.34473ZM19.1667 10L18.4317 9.60715C18.3615 9.73863 18.2892 9.86897 18.215 9.99814C18.241 10.043 18.2646 10.0845 18.2857 10.1221C18.3333 10.2067 18.3686 10.272 18.3912 10.3149C18.4026 10.3363 18.4108 10.3521 18.4158 10.3619L18.4209 10.372L18.4215 10.3731C18.4214 10.3729 18.4213 10.3727 19.1667 10Z" fill="#111827"/>
</g>
<defs>
<clipPath id="clip0_639_4730">
<rect width="20" height="20" fill="white"/>
</clipPath>
</defs>
</svg>
