<svg width="20" height="20" viewBox="0 0 20 20" fill="none" xmlns="http://www.w3.org/2000/svg">
<g clip-path="url(#clip0_639_4698)">
<path fill-rule="evenodd" clip-rule="evenodd" d="M2.14538 10.5896C1.9958 10.358 1.87506 10.1574 1.78398 10C1.87506 9.84261 1.9958 9.64204 2.14538 9.41044C2.52956 8.81557 3.0985 8.0245 3.83714 7.23662C5.32963 5.64463 7.41629 4.16667 10 4.16667C12.5838 4.16667 14.6704 5.64463 16.1629 7.23662C16.9016 8.0245 17.4705 8.81557 17.8547 9.41044C18.0043 9.64204 18.125 9.84261 18.2161 10C18.125 10.1574 18.0043 10.358 17.8547 10.5896C17.4705 11.1844 16.9016 11.9755 16.1629 12.7634C14.6704 14.3554 12.5838 15.8333 10 15.8333C7.41629 15.8333 5.32963 14.3554 3.83714 12.7634C3.0985 11.9755 2.52956 11.1844 2.14538 10.5896ZM19.9118 9.62674C19.9119 9.62704 19.9121 9.62732 19.1667 10C19.9121 10.3727 19.9119 10.373 19.9118 10.3733L19.9114 10.374L19.9104 10.3759L19.9075 10.3816L19.8981 10.4001C19.8901 10.4156 19.8789 10.4372 19.8644 10.4646C19.8354 10.5194 19.7933 10.5973 19.7384 10.695C19.6285 10.8903 19.4668 11.1654 19.2548 11.4938C18.8316 12.1489 18.2027 13.0245 17.3788 13.9033C15.7463 15.6446 13.2496 17.5 10 17.5C6.75044 17.5 4.25376 15.6446 2.62125 13.9033C1.79739 13.0245 1.16842 12.1489 0.74531 11.4938C0.533239 11.1654 0.371524 10.8903 0.261673 10.695C0.206717 10.5973 0.164647 10.5194 0.135658 10.4646C0.121161 10.4372 0.109926 10.4156 0.101979 10.4001L0.0925222 10.3816L0.0896463 10.3759L0.0886723 10.374L0.0883014 10.3733C0.0881482 10.373 0.0880079 10.3727 0.833364 10C0.0880079 9.62732 0.0881482 9.62704 0.0883014 9.62674L0.0886723 9.626L0.0896463 9.62406L0.0925222 9.61837L0.101979 9.59985C0.109926 9.58439 0.121161 9.56276 0.135658 9.53536C0.164647 9.48058 0.206717 9.40269 0.261673 9.30499C0.371524 9.1097 0.533239 8.8346 0.74531 8.50623C1.16842 7.85109 1.79739 6.9755 2.62125 6.09672C4.25376 4.35537 6.75044 2.5 10 2.5C13.2496 2.5 15.7463 4.35537 17.3788 6.09672C18.2027 6.9755 18.8316 7.85109 19.2548 8.50623C19.4668 8.8346 19.6285 9.1097 19.7384 9.30499C19.7933 9.40269 19.8354 9.48058 19.8644 9.53536C19.8789 9.56276 19.8901 9.58439 19.8981 9.59985L19.9075 9.61837L19.9104 9.62406L19.9114 9.626L19.9118 9.62674ZM19.1667 10L19.9121 9.62732C20.0294 9.86193 20.0294 10.1381 19.9121 10.3727L19.1667 10ZM0.0880079 9.62732L0.833364 10L0.0880079 10.3727C-0.0292953 10.1381 -0.0292953 9.86193 0.0880079 9.62732ZM8.33336 10C8.33336 9.07953 9.07956 8.33333 10 8.33333C10.9205 8.33333 11.6667 9.07953 11.6667 10C11.6667 10.9205 10.9205 11.6667 10 11.6667C9.07956 11.6667 8.33336 10.9205 8.33336 10ZM10 6.66667C8.15908 6.66667 6.6667 8.15905 6.6667 10C6.6667 11.8409 8.15908 13.3333 10 13.3333C11.841 13.3333 13.3334 11.8409 13.3334 10C13.3334 8.15905 11.841 6.66667 10 6.66667Z" fill="#111827"/>
</g>
<defs>
<clipPath id="clip0_639_4698">
<rect width="20" height="20" fill="white"/>
</clipPath>
</defs>
</svg>
