<svg width="20" height="20" viewBox="0 0 20 20" fill="none" xmlns="http://www.w3.org/2000/svg">
<path fill-rule="evenodd" clip-rule="evenodd" d="M4.5825 0.869167C3.6525 1.025 2.88416 1.70667 2.595 2.63333L2.51666 2.88333V17.1167L2.595 17.3667C2.7182 17.7686 2.93804 18.1341 3.23528 18.4314C3.53252 18.7286 3.8981 18.9485 4.3 19.0717L4.55 19.15H15.45L15.7 19.0717C16.5133 18.8183 17.1283 18.2092 17.405 17.3833L17.4833 17.15L17.4925 12.25C17.5017 7.76583 17.4975 7.3375 17.4475 7.2C17.4008 7.0725 16.935 6.59167 14.3708 4.02167C11.9417 1.58583 11.3175 0.977501 11.1833 0.913334L11.0167 0.834167L7.88333 0.837501C6.16 0.839167 4.67416 0.854167 4.5825 0.869167ZM10.0075 5.125L10.0167 7.75L10.1092 7.9075C10.2133 8.085 10.3742 8.22 10.5583 8.28583C10.6583 8.32167 11.1942 8.33083 13.2583 8.33167L15.8333 8.33333V12.545C15.8333 16.0167 15.825 16.7825 15.7875 16.9083C15.7249 17.1125 15.5878 17.2857 15.4033 17.3933L15.25 17.4833H4.75L4.59666 17.3933C4.50523 17.3376 4.42336 17.2675 4.35416 17.1858C4.15416 16.9233 4.16666 17.4067 4.16666 10.0183C4.16666 2.40667 4.145 3.02667 4.42 2.7525C4.6775 2.495 4.55416 2.505 7.44083 2.5025L9.99833 2.5L10.0075 5.125ZM13.1667 5.18333L14.65 6.66667H11.6667V5.18333C11.6667 4.3675 11.6708 3.7 11.675 3.7C11.68 3.7 12.3508 4.3675 13.1667 5.18333Z" fill="#111827"/>
</svg>
