<svg width="20" height="21" viewBox="0 0 20 21" fill="none" xmlns="http://www.w3.org/2000/svg">
<g clip-path="url(#clip0_639_4844)">
<path fill-rule="evenodd" clip-rule="evenodd" d="M4.5825 0.879299C3.6525 1.03513 2.88416 1.7168 2.595 2.64347L2.51666 2.89347V17.1268L2.595 17.3768C2.7182 17.7787 2.93804 18.1443 3.23528 18.4415C3.53252 18.7388 3.8981 18.9586 4.3 19.0818L4.55 19.1601H15.45L15.7 19.0818C16.5133 18.8285 17.1283 18.2193 17.405 17.3935L17.4833 17.1601L17.4925 11.8435C17.5008 6.97263 17.4975 6.5143 17.4467 6.3768C17.4008 6.25013 16.9908 5.8243 14.7875 3.61513C12.7008 1.52263 12.15 0.987633 12.0167 0.923466L11.85 0.844299L8.3 0.847633C6.3475 0.849299 4.67416 0.864299 4.5825 0.879299ZM10.835 4.66847C10.8358 6.3843 10.845 6.85263 10.8808 6.9518C10.9467 7.13597 11.0817 7.2968 11.2592 7.40097L11.4167 7.49347L13.625 7.50263L15.8333 7.5118V12.1393C15.8333 15.9635 15.825 16.7926 15.7875 16.9185C15.7249 17.1227 15.5878 17.2958 15.4033 17.4035L15.25 17.4935H4.75L4.59666 17.4035C4.50523 17.3477 4.42336 17.2777 4.35416 17.196C4.15416 16.9335 4.16666 17.4168 4.16666 10.0285C4.16666 2.4168 4.145 3.0368 4.42 2.76263C4.67916 2.50263 4.5075 2.51513 7.85833 2.51263L10.8333 2.51013L10.835 4.66847ZM13.5833 4.7768L14.65 5.84347H12.5V4.7768C12.5 4.19013 12.5042 3.71013 12.5083 3.71013C12.5133 3.71013 12.9967 4.19013 13.5833 4.7768ZM9.74583 9.2243C9.54731 9.29057 9.37948 9.42643 9.27333 9.6068L9.18333 9.76013L9.17333 10.7185L9.1625 11.6768H8.28666C7.33083 11.6768 7.2025 11.6951 6.985 11.861C6.91833 11.9118 6.8225 12.0226 6.77333 12.1068C6.6975 12.2368 6.68333 12.2985 6.68333 12.5101C6.68333 12.7235 6.69666 12.7835 6.77583 12.9176C6.82666 13.0035 6.92 13.1143 6.98416 13.1626C7.20166 13.3293 7.28166 13.3401 8.25666 13.3418L9.1625 13.3435L9.17333 14.3043L9.18333 15.266L9.28416 15.4293C9.35773 15.5537 9.46243 15.6567 9.58795 15.7283C9.71348 15.7999 9.85549 15.8376 10 15.8376C10.1445 15.8376 10.2865 15.7999 10.412 15.7283C10.5376 15.6567 10.6423 15.5537 10.7158 15.4293L10.8167 15.266L10.8267 14.3043L10.8375 13.3435L11.7433 13.3418C12.7183 13.3401 12.7983 13.3293 13.0158 13.1626C13.08 13.1143 13.1733 13.0035 13.2242 12.9176C13.3033 12.7835 13.3167 12.7235 13.3167 12.5101C13.3167 12.2985 13.3025 12.2368 13.2267 12.1068C13.1698 12.014 13.0984 11.9309 13.015 11.861C12.7975 11.6951 12.6692 11.6768 11.7133 11.6768H10.8375L10.8267 10.7185L10.8167 9.76013L10.7267 9.6068C10.6316 9.44047 10.4824 9.31177 10.3039 9.24217C10.1254 9.17256 9.92841 9.16625 9.74583 9.2243Z" fill="#111827"/>
</g>
<defs>
<clipPath id="clip0_639_4844">
<rect width="20" height="20" fill="white" transform="translate(0 0.0101318)"/>
</clipPath>
</defs>
</svg>
