<svg width="20" height="21" viewBox="0 0 20 21" fill="none" xmlns="http://www.w3.org/2000/svg">
<path fill-rule="evenodd" clip-rule="evenodd" d="M2.74406 3.58753C2.90034 3.43125 3.1123 3.34345 3.33331 3.34345H7.05399L8.47327 5.47237C8.62783 5.7042 8.88802 5.84345 9.16665 5.84345H16.6666C16.8877 5.84345 17.0996 5.93125 17.2559 6.08753C17.4122 6.24381 17.5 6.45577 17.5 6.67679V15.8435C17.5 16.0645 17.4122 16.2764 17.2559 16.4327C17.0996 16.589 16.8877 16.6768 16.6666 16.6768H3.33331C3.1123 16.6768 2.90034 16.589 2.74406 16.4327C2.58778 16.2764 2.49998 16.0645 2.49998 15.8435V4.17679C2.49998 3.95577 2.58778 3.74381 2.74406 3.58753ZM3.33331 1.67679C2.67027 1.67679 2.03439 1.94018 1.56555 2.40902C1.0967 2.87786 0.833313 3.51375 0.833313 4.17679V15.8435C0.833313 16.5065 1.09671 17.1424 1.56555 17.6112C2.03439 18.0801 2.67027 18.3435 3.33331 18.3435H16.6666C17.3297 18.3435 17.9656 18.0801 18.4344 17.6112C18.9033 17.1424 19.1666 16.5065 19.1666 15.8435V6.67679C19.1666 6.01375 18.9033 5.37786 18.4344 4.90902C17.9656 4.44018 17.3297 4.17679 16.6666 4.17679H9.61263L8.19335 2.04787C8.0388 1.81604 7.77861 1.67679 7.49998 1.67679H3.33331ZM9.99998 8.34345C10.4602 8.34345 10.8333 8.71655 10.8333 9.17679V10.8435H12.5C12.9602 10.8435 13.3333 11.2166 13.3333 11.6768C13.3333 12.137 12.9602 12.5101 12.5 12.5101H10.8333V14.1768C10.8333 14.637 10.4602 15.0101 9.99998 15.0101C9.53974 15.0101 9.16665 14.637 9.16665 14.1768V12.5101H7.49998C7.03974 12.5101 6.66665 12.137 6.66665 11.6768C6.66665 11.2166 7.03974 10.8435 7.49998 10.8435H9.16665V9.17679C9.16665 8.71655 9.53974 8.34345 9.99998 8.34345Z" fill="#111827"/>
</svg>
