<svg width="20" height="21" viewBox="0 0 20 21" fill="none" xmlns="http://www.w3.org/2000/svg">
<g clip-path="url(#clip0_639_4691)">
<path d="M7.49996 15.8435C3.33329 17.0935 3.33329 13.7601 1.66663 13.3435M13.3333 18.3435V15.1185C13.3646 14.7211 13.3109 14.3216 13.1758 13.9466C13.0407 13.5716 12.8274 13.2296 12.55 12.9435C15.1666 12.6518 17.9166 11.6601 17.9166 7.11013C17.9164 5.94665 17.4689 4.8278 16.6666 3.98513C17.0465 2.96722 17.0196 1.84209 16.5916 0.843464C16.5916 0.843464 15.6083 0.551797 13.3333 2.0768C11.4233 1.55915 9.40995 1.55915 7.49996 2.0768C5.22496 0.551797 4.24163 0.843464 4.24163 0.843464C3.81361 1.84209 3.78675 2.96722 4.16663 3.98513C3.3584 4.83405 2.91039 5.96302 2.91663 7.13513C2.91663 11.6518 5.66663 12.6435 8.28329 12.9685C8.00912 13.2518 7.79768 13.5896 7.66272 13.9601C7.52775 14.3305 7.4723 14.7252 7.49996 15.1185V18.3435" stroke="#111827" stroke-width="1.66667" stroke-linecap="round" stroke-linejoin="round"/>
</g>
<defs>
<clipPath id="clip0_639_4691">
<rect width="20" height="20" fill="white" transform="translate(0 0.0101318)"/>
</clipPath>
</defs>
</svg>
