<svg width="22" height="23" viewBox="0 0 22 23" fill="none" xmlns="http://www.w3.org/2000/svg">
<rect width="22" height="22" transform="translate(0 0.0101318)" fill="white"/>
<path d="M11 1.01013C8.62545 1.01023 6.32845 1.87662 4.51997 3.45427C2.71148 5.03192 1.50952 7.21789 1.12916 9.62103C0.748794 12.0242 1.21484 14.4877 2.44392 16.5707C3.67299 18.6538 5.58488 20.2205 7.8375 20.9905C8.3375 21.0802 8.52499 20.7727 8.52499 20.5035C8.52499 20.26 8.51249 19.4526 8.51249 18.5939C5.99999 19.0681 5.35 17.9659 5.15 17.3892C4.92808 16.8283 4.57628 16.3312 4.12501 15.941C3.77501 15.7487 3.27501 15.2745 4.1125 15.2617C4.43228 15.2973 4.73899 15.4114 5.00663 15.5943C5.27427 15.7773 5.49496 16.0236 5.64999 16.3126C5.78676 16.5645 5.97067 16.7863 6.19118 16.9652C6.41169 17.1441 6.66446 17.2767 6.93502 17.3552C7.20557 17.4338 7.48859 17.4569 7.76786 17.4231C8.04712 17.3894 8.31715 17.2994 8.56245 17.1585C8.60574 16.6372 8.83231 16.1499 9.19997 15.7872C6.97499 15.5309 4.65 14.6465 4.65 10.7248C4.63595 9.70582 5.00268 8.71993 5.67499 7.96933C5.36928 7.08371 5.40505 6.1118 5.77499 5.25231C5.77499 5.25231 6.61246 4.98316 8.52497 6.30323C10.1613 5.84183 11.8887 5.84183 13.5249 6.30323C15.4374 4.97035 16.2749 5.25231 16.2749 5.25231C16.6449 6.11178 16.6807 7.08371 16.3749 7.96933C17.0493 8.71864 17.4163 9.70539 17.3999 10.7248C17.3999 14.6593 15.0624 15.5309 12.8374 15.7872C13.0761 16.0352 13.2599 16.3329 13.3764 16.6602C13.4928 16.9875 13.5392 17.3367 13.5124 17.684C13.5124 19.0553 13.4999 20.1575 13.4999 20.5035C13.4999 20.7727 13.6874 21.0931 14.1874 20.9905C16.4361 20.2143 18.3425 18.6439 19.5663 16.5598C20.7901 14.4756 21.2518 12.0134 20.8688 9.61258C20.4858 7.21176 19.2831 5.02863 17.4754 3.4529C15.6677 1.87717 13.3726 1.0114 11 1.01013Z" fill="#111827"/>
</svg>
