<svg width="20" height="21" viewBox="0 0 20 21" fill="none" xmlns="http://www.w3.org/2000/svg">
<path fill-rule="evenodd" clip-rule="evenodd" d="M5.08809 1.20923C3.93431 1.32921 2.8449 1.79948 1.96625 2.55683C1.08761 3.31419 0.461832 4.32235 0.173022 5.44582C-0.0576739 6.36878 -0.0576739 7.33432 0.173022 8.25728C0.418408 9.20841 0.869332 10.0148 1.59815 10.8003C1.81208 11.032 3.66821 12.8987 5.72253 14.9488C8.34733 17.5694 9.504 18.7009 9.61411 18.7575C9.73483 18.8129 9.86604 18.8416 9.99885 18.8418C10.1317 18.842 10.263 18.8136 10.3838 18.7586C10.495 18.7009 11.7146 17.5033 14.5984 14.6174C19.0101 10.2025 18.9461 10.2718 19.3625 9.46114C20.0034 8.22457 20.1679 6.79571 19.8249 5.44582C19.4501 4.01625 18.5405 2.78528 17.284 2.00726C16.2615 1.38934 15.0711 1.10733 13.8801 1.20084C13.3138 1.25013 12.9845 1.3162 12.5158 1.47454C11.6999 1.75034 11.0183 2.16981 10.3398 2.81263L9.99897 3.13562L9.65815 2.81263C9.06228 2.22419 8.34335 1.77517 7.55311 1.49792C6.76288 1.22067 5.921 1.12207 5.08809 1.20923ZM6.17136 2.95735C6.77697 3.03717 7.35667 3.25299 7.86704 3.58864C7.99183 3.67044 8.40081 4.03852 8.77518 4.4066C9.16948 4.79355 9.52392 5.11025 9.61411 5.15849C9.73456 5.21492 9.86595 5.24418 9.99897 5.24418C10.132 5.24418 10.2634 5.21492 10.3838 5.15849C10.474 5.1113 10.8127 4.80928 11.1871 4.4412C12.0397 3.60228 12.2326 3.46176 12.8859 3.20169C13.7168 2.87475 14.6342 2.84045 15.4872 3.10443C16.3401 3.36842 17.0778 3.91496 17.5787 4.65408C17.7926 4.96868 18.0296 5.49091 18.1345 5.87997C18.2173 6.19037 18.2268 6.2816 18.2268 6.85103C18.2268 7.42254 18.2173 7.51273 18.1324 7.83047C17.9746 8.36786 17.7186 8.87134 17.3773 9.31538C17.2442 9.47897 15.5286 11.2176 13.5665 13.1786L9.99792 16.7441L6.30034 13.0381C2.41715 9.14864 2.44232 9.17486 2.13716 8.5572C1.33808 6.93911 1.7974 4.91415 3.22043 3.78684C3.63183 3.45827 4.10497 3.21556 4.61184 3.07308C5.11871 2.9306 5.64901 2.89125 6.17136 2.95735Z" fill="black"/>
</svg>
