<svg width="20" height="21" viewBox="0 0 20 21" fill="none" xmlns="http://www.w3.org/2000/svg">
<g clip-path="url(#clip0_639_4704)">
<path fill-rule="evenodd" clip-rule="evenodd" d="M10.5116 1.01902C10.2107 0.784962 9.7893 0.784962 9.48837 1.01902L1.98837 6.85235C1.78538 7.01023 1.66666 7.25298 1.66666 7.51014V16.6768C1.66666 17.3398 1.93005 17.9757 2.39889 18.4446C2.86773 18.9134 3.50361 19.1768 4.16666 19.1768L7.49999 19.1768H12.5L15.8333 19.1768C16.4964 19.1768 17.1322 18.9134 17.6011 18.4446C18.0699 17.9757 18.3333 17.3398 18.3333 16.6768V7.51014C18.3333 7.25298 18.2146 7.01023 18.0116 6.85235L10.5116 1.01902ZM13.3333 17.5101H15.8333C16.0543 17.5101 16.2663 17.4223 16.4226 17.2661C16.5789 17.1098 16.6667 16.8978 16.6667 16.6768V7.91771L9.99999 2.73253L3.33332 7.91771V16.6768C3.33332 16.8978 3.42112 17.1098 3.5774 17.2661C3.73368 17.4223 3.94564 17.5101 4.16666 17.5101H6.66666V10.0101C6.66666 9.5499 7.03975 9.17681 7.49999 9.17681H12.5C12.9602 9.17681 13.3333 9.5499 13.3333 10.0101V17.5101ZM8.33332 17.5101V10.8435H11.6667V17.5101H8.33332Z" fill="#111827"/>
</g>
<defs>
<clipPath id="clip0_639_4704">
<rect width="20" height="20" fill="white" transform="translate(0 0.0101318)"/>
</clipPath>
</defs>
</svg>
