<svg width="20" height="21" viewBox="0 0 20 21" fill="none" xmlns="http://www.w3.org/2000/svg">
<path fill-rule="evenodd" clip-rule="evenodd" d="M3.33335 4.17679C3.33335 3.71655 3.70645 3.34345 4.16669 3.34345H15.8334C16.2936 3.34345 16.6667 3.71655 16.6667 4.17679V10.4983L13.9226 7.7542C13.7663 7.59792 13.5544 7.51012 13.3334 7.51012C13.1123 7.51012 12.9004 7.59792 12.7441 7.7542L3.87426 16.624C3.55827 16.5056 3.33335 16.2008 3.33335 15.8435V4.17679ZM4.16758 18.3435H4.16669H4.16758ZM4.16758 18.3435H15.8334C17.2141 18.3435 18.3334 17.2242 18.3334 15.8435V12.511C18.3334 12.5104 18.3334 12.5098 18.3334 12.5092V4.17679C18.3334 2.79608 17.2141 1.67679 15.8334 1.67679H4.16669C2.78597 1.67679 1.66669 2.79608 1.66669 4.17679V15.8435C1.66669 17.2238 2.78539 18.3429 4.1656 18.3435M16.6667 12.8553V15.8435C16.6667 16.3037 16.2936 16.6768 15.8334 16.6768H6.17853L13.3334 9.52197L16.6667 12.8553ZM7.08335 6.67679C6.85324 6.67679 6.66669 6.86334 6.66669 7.09345C6.66669 7.32357 6.85324 7.51012 7.08335 7.51012C7.31347 7.51012 7.50002 7.32357 7.50002 7.09345C7.50002 6.86334 7.31347 6.67679 7.08335 6.67679ZM5.00002 7.09345C5.00002 5.94286 5.93276 5.01012 7.08335 5.01012C8.23395 5.01012 9.16669 5.94286 9.16669 7.09345C9.16669 8.24405 8.23395 9.17679 7.08335 9.17679C5.93276 9.17679 5.00002 8.24405 5.00002 7.09345Z" fill="#111827"/>
</svg>
