<svg width="20" height="21" viewBox="0 0 20 21" fill="none" xmlns="http://www.w3.org/2000/svg">
<g clip-path="url(#clip0_639_4686)">
<path fill-rule="evenodd" clip-rule="evenodd" d="M2.50004 10.0101C2.50004 5.86801 5.8579 2.51014 10 2.51014C14.1422 2.51014 17.5 5.86801 17.5 10.0101C17.5 14.1523 14.1422 17.5101 10 17.5101C5.8579 17.5101 2.50004 14.1523 2.50004 10.0101ZM10 0.843475C4.93743 0.843475 0.833374 4.94753 0.833374 10.0101C0.833374 15.0728 4.93743 19.1768 10 19.1768C15.0626 19.1768 19.1667 15.0728 19.1667 10.0101C19.1667 4.94753 15.0626 0.843475 10 0.843475ZM9.16671 6.67681C9.16671 6.21657 9.5398 5.84348 10 5.84348H10.0084C10.4686 5.84348 10.8417 6.21657 10.8417 6.67681C10.8417 7.13705 10.4686 7.51014 10.0084 7.51014H10C9.5398 7.51014 9.16671 7.13705 9.16671 6.67681ZM10 9.17681C10.4603 9.17681 10.8334 9.5499 10.8334 10.0101V13.3435C10.8334 13.8037 10.4603 14.1768 10 14.1768C9.5398 14.1768 9.16671 13.8037 9.16671 13.3435V10.0101C9.16671 9.5499 9.5398 9.17681 10 9.17681Z" fill="#111827"/>
</g>
<defs>
<clipPath id="clip0_639_4686">
<rect width="20" height="20" fill="white" transform="translate(0 0.0101318)"/>
</clipPath>
</defs>
</svg>
