<svg width="20" height="21" viewBox="0 0 20 21" fill="none" xmlns="http://www.w3.org/2000/svg">
<path d="M9.00572 2.07722C7.12144 2.2683 5.27857 3.12815 3.99477 4.4069C2.70407 5.69299 1.99315 7.3392 2.00005 8.99275C2.00695 9.98488 2.37967 11.271 2.91113 12.1382C3.27004 12.7261 4.16732 13.7256 4.62286 14.0637C4.89205 14.2621 4.96797 14.3576 5.00248 14.5781C5.0646 14.9676 4.87134 15.6805 4.57455 16.1582C4.31227 16.5844 3.64966 17.2164 3.26314 17.4149C3.07678 17.5104 3.03537 17.5692 3.03537 17.7676V18.0101L3.53923 17.9734C4.35368 17.9146 5.10601 17.797 5.6927 17.6353C6.47954 17.4222 7.54937 16.8563 8.18437 16.3125L8.72964 15.8495L9.93751 15.8421C10.8831 15.8348 11.2972 15.798 11.8425 15.6805C13.7199 15.2542 15.1417 14.4605 16.2668 13.2185C17.1917 12.1896 17.7093 11.1607 17.9164 9.93344C18.2477 7.97857 17.5851 5.99431 16.0942 4.48774C14.7138 3.0767 12.9952 2.283 10.8693 2.06987C10.0272 1.98903 9.8961 1.98903 9.00572 2.07722Z" fill="#111827"/>
</svg>
