<svg width="20" height="21" viewBox="0 0 20 21" fill="none" xmlns="http://www.w3.org/2000/svg">
<g clip-path="url(#clip0_639_4685)">
<path fill-rule="evenodd" clip-rule="evenodd" d="M14.1631 0.899023C12.8521 0.887631 11.5891 1.3916 10.6461 2.30239L10.6461 2.30233L10.6375 2.31083L9.20417 3.73583C8.87779 4.06032 8.87625 4.58795 9.20074 4.91434C9.52522 5.24072 10.0529 5.24226 10.3792 4.91777L11.8081 3.49726C12.4363 2.89256 13.2765 2.55805 14.1486 2.56563C15.0226 2.57322 15.8587 2.92379 16.4767 3.54181C17.0947 4.15984 17.4453 4.99588 17.4529 5.86987C17.4605 6.74157 17.1262 7.58147 16.5221 8.20961L14.0275 10.7042L14.0273 10.7043C13.6894 11.0424 13.2827 11.3038 12.8349 11.4708C12.3871 11.6379 11.9085 11.7067 11.4318 11.6725C10.955 11.6384 10.4912 11.5021 10.0717 11.2729C9.65225 11.0438 9.28698 10.7271 9.00068 10.3443C8.72501 9.97578 8.20277 9.90049 7.83423 10.1762C7.46568 10.4518 7.3904 10.9741 7.66607 11.3426C8.09552 11.9167 8.64343 12.3918 9.27262 12.7356C9.90181 13.0793 10.5976 13.2837 11.3127 13.3349C12.0279 13.3862 12.7457 13.283 13.4174 13.0324C14.0891 12.7818 14.6991 12.3897 15.206 11.8827L15.2061 11.8826L17.706 9.38272L17.7161 9.37239C18.6269 8.42938 19.1309 7.16637 19.1195 5.85539C19.1081 4.5444 18.5822 3.29034 17.6552 2.3633C16.7282 1.43626 15.4741 0.910415 14.1631 0.899023ZM8.68732 6.68532C7.97218 6.6341 7.25439 6.73729 6.58263 6.98787C5.91092 7.23844 5.30095 7.63053 4.79408 8.13755L4.79397 8.13765L2.29408 10.6375L2.28393 10.6479C1.37314 11.5909 0.869168 12.8539 0.88056 14.1649C0.891952 15.4759 1.4178 16.7299 2.34484 17.657C3.27188 18.584 4.52594 19.1099 5.83692 19.1212C7.14791 19.1326 8.41092 18.6287 9.35393 17.7179L9.36426 17.7077L10.7893 16.2827C11.1147 15.9573 11.1147 15.4296 10.7893 15.1042C10.4638 14.7788 9.93618 14.7788 9.61075 15.1042L8.19113 16.5238C7.56299 17.128 6.72311 17.4622 5.85141 17.4546C4.97742 17.447 4.14138 17.0965 3.52335 16.4785C2.90532 15.8604 2.55476 15.0244 2.54716 14.1504C2.53959 13.2787 2.8738 12.4388 3.47799 11.8107L5.97259 9.31606L5.9727 9.31595C6.31062 8.9779 6.7173 8.71649 7.16514 8.54943C7.61298 8.38237 8.0915 8.31358 8.56827 8.34773C9.04503 8.38187 9.50887 8.51815 9.92833 8.74732C10.3478 8.97649 10.7131 9.2932 10.9994 9.67595C11.275 10.0445 11.7973 10.1198 12.1658 9.8441C12.5344 9.56843 12.6096 9.04619 12.334 8.67765C11.9045 8.10352 11.3566 7.62847 10.7274 7.28471C10.0982 6.94095 9.40247 6.73654 8.68732 6.68532Z" fill="#111827"/>
</g>
<defs>
<clipPath id="clip0_639_4685">
<rect width="20" height="20" fill="white" transform="translate(0 0.0101318)"/>
</clipPath>
</defs>
</svg>
