<svg width="20" height="21" viewBox="0 0 20 21" fill="none" xmlns="http://www.w3.org/2000/svg">
<path fill-rule="evenodd" clip-rule="evenodd" d="M5.83335 5.01012C5.83335 4.54988 6.20645 4.17679 6.66669 4.17679H17.5C17.9603 4.17679 18.3334 4.54988 18.3334 5.01012C18.3334 5.47036 17.9603 5.84346 17.5 5.84346H6.66669C6.20645 5.84346 5.83335 5.47036 5.83335 5.01012ZM5.83335 10.0101C5.83335 9.54988 6.20645 9.17679 6.66669 9.17679H17.5C17.9603 9.17679 18.3334 9.54988 18.3334 10.0101C18.3334 10.4704 17.9603 10.8435 17.5 10.8435H6.66669C6.20645 10.8435 5.83335 10.4704 5.83335 10.0101ZM2.50002 14.1768C2.03978 14.1768 1.66669 14.5499 1.66669 15.0101C1.66669 15.4704 2.03978 15.8435 2.50002 15.8435H2.50835C2.96859 15.8435 3.34169 15.4704 3.34169 15.0101C3.34169 14.5499 2.96859 14.1768 2.50835 14.1768H2.50002ZM6.66669 14.1768C6.20645 14.1768 5.83335 14.5499 5.83335 15.0101C5.83335 15.4704 6.20645 15.8435 6.66669 15.8435H17.5C17.9603 15.8435 18.3334 15.4704 18.3334 15.0101C18.3334 14.5499 17.9603 14.1768 17.5 14.1768H6.66669ZM2.50002 9.17679C2.03978 9.17679 1.66669 9.54988 1.66669 10.0101C1.66669 10.4704 2.03978 10.8435 2.50002 10.8435H2.50835C2.96859 10.8435 3.34169 10.4704 3.34169 10.0101C3.34169 9.54988 2.96859 9.17679 2.50835 9.17679H2.50002ZM2.50002 4.17679C2.03978 4.17679 1.66669 4.54988 1.66669 5.01012C1.66669 5.47036 2.03978 5.84346 2.50002 5.84346H2.50835C2.96859 5.84346 3.34169 5.47036 3.34169 5.01012C3.34169 4.54988 2.96859 4.17679 2.50835 4.17679H2.50002Z" fill="#111827"/>
</svg>
