<svg width="20" height="21" viewBox="0 0 20 21" fill="none" xmlns="http://www.w3.org/2000/svg">
<g clip-path="url(#clip0_639_4680)">
<path fill-rule="evenodd" clip-rule="evenodd" d="M7.64294 3.48645C8.26806 2.86133 9.1159 2.51014 9.99996 2.51014C10.884 2.51014 11.7319 2.86133 12.357 3.48645C12.9821 4.11157 13.3333 4.95942 13.3333 5.84348V8.34348H6.66663V5.84348C6.66663 4.95942 7.01782 4.11157 7.64294 3.48645ZM4.99996 8.34348V5.84348C4.99996 4.51739 5.52674 3.24562 6.46443 2.30794C7.40211 1.37026 8.67388 0.843475 9.99996 0.843475C11.326 0.843475 12.5978 1.37026 13.5355 2.30794C14.4732 3.24562 15 4.51739 15 5.84348V8.34348H15.8333C17.214 8.34348 18.3333 9.46276 18.3333 10.8435V16.6768C18.3333 18.0575 17.214 19.1768 15.8333 19.1768H4.16663C2.78591 19.1768 1.66663 18.0575 1.66663 16.6768V10.8435C1.66663 9.46276 2.78591 8.34348 4.16663 8.34348H4.99996ZM14.1666 10.0101H5.83329H4.16663C3.70639 10.0101 3.33329 10.3832 3.33329 10.8435V16.6768C3.33329 17.137 3.70639 17.5101 4.16663 17.5101H15.8333C16.2935 17.5101 16.6666 17.137 16.6666 16.6768V10.8435C16.6666 10.3832 16.2935 10.0101 15.8333 10.0101H14.1666Z" fill="#111827"/>
</g>
<defs>
<clipPath id="clip0_639_4680">
<rect width="20" height="20" fill="white" transform="translate(0 0.0101318)"/>
</clipPath>
</defs>
</svg>
