<?xml version="1.0" encoding="UTF-8"?>
<svg id="Layer_1" data-name="Layer 1" xmlns="http://www.w3.org/2000/svg" viewBox="0 0 317.2 319.9">
  <defs>
    <style>
      .cls-1 {
        fill: #21ca7b;
        stroke-width: 0px;
      }
    </style>
  </defs>
  <path class="cls-1" d="M294.4,3.9c-7.4-2.6-19.7-4.3-27.5-3.8L25.7,15.8C11.4,16.8,0,30,0,45.2v142.6c0,15.2,11.4,28.4,25.7,29.4l56.4,3.7c1.3,0,2.9-.8,3.5-1.9l38.2-66.8c-12.5-11.7-20.3-28.3-20.3-46.9,0-35.3,28.4-63.9,63.3-63.9s63.3,28.6,63.3,63.9-28.4,63.9-63.3,63.9-11.7-.9-17.2-2.4c-2.8,5-5.7,9.9-8.5,14.9-6.2,10.9-12.4,21.7-18.6,32.6-8.7,15.2-19.1,33.5-19.1,33.5-3.9,6.8-1.4,9.3,5.5,5.7l39.6-20.6c6.8-3.7,18.8-6.4,26.6-5.9l105.9,6.9c19.7,1.3,36.2-12.7,36.2-31.1V30.3c0-18.4-22.8-26.4-22.8-26.4h0Z"/>
  <ellipse class="cls-1" cx="166.9" cy="105.2" rx="31.7" ry="32"/>
  <g>
    <path class="cls-1" d="M27.5,261.7h43.8v12.3h-26v10h22.2v11.6h-22.2v23.4h-17.8v-57.3Z"/>
    <path class="cls-1" d="M75.1,298.3c0-6.3,2.1-11.5,6.4-15.6,4.3-4.1,10-6.2,17.3-6.2s14.6,2.4,18.8,7.2c3.4,3.9,5.1,8.7,5.1,14.3s-2.1,11.6-6.3,15.7c-4.2,4.1-10.1,6.1-17.6,6.1s-12.1-1.7-16.2-5.1c-5.1-4.2-7.6-9.7-7.6-16.5ZM91,298.3c0,3.7.7,6.4,2.2,8.2,1.5,1.8,3.4,2.7,5.6,2.7s4.2-.9,5.6-2.6c1.5-1.7,2.2-4.5,2.2-8.4s-.7-6.3-2.2-8-3.3-2.6-5.5-2.6-4.2.9-5.7,2.7c-1.5,1.8-2.3,4.5-2.3,8.1Z"/>
    <path class="cls-1" d="M130.5,277.5h14.9v6.8c1.4-2.9,2.9-5,4.4-6.1,1.5-1.1,3.4-1.7,5.6-1.7s4.9.7,7.7,2.2l-4.9,11.3c-1.9-.8-3.4-1.2-4.5-1.2-2.1,0-3.7.9-4.8,2.6-1.6,2.4-2.5,7-2.5,13.6v13.9h-16v-41.5Z"/>
    <path class="cls-1" d="M166.7,261.7h23.3l9,34.8,8.9-34.8h23.3v57.3h-14.5v-43.7l-11.2,43.7h-13.1l-11.1-43.7v43.7h-14.5v-57.3Z"/>
    <path class="cls-1" d="M241,261.7h50.1v11.4l-32.1,33.5h33.3v12.3h-54.3v-11.9l31.8-33.2h-28.7v-12.2Z"/>
  </g>
</svg>