<svg width="20" height="21" viewBox="0 0 20 21" fill="none" xmlns="http://www.w3.org/2000/svg">
<path fill-rule="evenodd" clip-rule="evenodd" d="M2.58887 4.63842C2.72668 4.3659 3.01008 4.1768 3.33338 4.1768H16.6667C16.99 4.1768 17.2734 4.3659 17.4112 4.63842L10.0001 9.82625L2.58887 4.63842ZM0.833426 4.99568C0.833291 5.0039 0.833277 5.01212 0.833385 5.02034V15.0101C0.833385 16.387 1.95648 17.5101 3.33338 17.5101H16.6667C18.0436 17.5101 19.1667 16.387 19.1667 15.0101V5.02034M17.5001 6.61068V15.0101C17.5001 15.4666 17.1231 15.8435 16.6667 15.8435H3.33338C2.87696 15.8435 2.50005 15.4666 2.50005 15.0101V6.61068L9.52217 11.5262C9.8091 11.727 10.191 11.727 10.4779 11.5262L17.5001 6.61068ZM19.1667 4.99682C19.1595 3.62599 18.0392 2.51013 16.6667 2.51013H3.33338C1.9613 2.51013 0.841251 3.62538 0.833426 4.99568" fill="#111827"/>
</svg>
