<svg width="20" height="21" viewBox="0 0 20 21" fill="none" xmlns="http://www.w3.org/2000/svg">
<g clip-path="url(#clip0_639_4682)">
<path fill-rule="evenodd" clip-rule="evenodd" d="M5.28597 3.62942C6.53622 2.37918 8.23191 1.6768 10 1.6768C11.7681 1.6768 13.4638 2.37918 14.7141 3.62942C15.9643 4.87966 16.6667 6.57536 16.6667 8.34347C16.6667 10.9252 14.9869 13.4303 13.1451 15.3745C12.2412 16.3286 11.3345 17.1097 10.6528 17.6525C10.3991 17.8545 10.1775 18.0228 10 18.1539C9.82254 18.0228 9.60095 17.8545 9.34725 17.6525C8.66558 17.1097 7.75886 16.3286 6.85498 15.3745C5.01313 13.4303 3.33335 10.9252 3.33335 8.34347C3.33335 6.57536 4.03573 4.87966 5.28597 3.62942ZM9.53732 19.8699C9.53756 19.87 9.53777 19.8702 10 19.1768L9.53777 19.8702C9.81769 20.0568 10.1824 20.0568 10.4623 19.8702L10 19.1768C10.4623 19.8702 10.4625 19.87 10.4627 19.8699L10.4633 19.8695L10.4651 19.8683L10.4707 19.8646L10.4898 19.8516C10.506 19.8406 10.5291 19.8248 10.5587 19.8043C10.6179 19.7633 10.703 19.7036 10.8102 19.6261C11.0246 19.4713 11.3281 19.2453 11.691 18.9563C12.4156 18.3793 13.3839 17.5458 14.355 16.5208C16.2631 14.5066 18.3334 11.5951 18.3334 8.34347C18.3334 6.13333 17.4554 4.01371 15.8926 2.45091C14.3298 0.888105 12.2102 0.0101318 10 0.0101318C7.78988 0.0101318 5.67027 0.888105 4.10746 2.45091C2.54466 4.01371 1.66669 6.13333 1.66669 8.34347C1.66669 11.5951 3.73691 14.5066 5.64506 16.5208C6.61618 17.5458 7.58446 18.3793 8.30904 18.9563C8.67199 19.2453 8.97547 19.4713 9.18985 19.6261C9.29707 19.7036 9.38213 19.7633 9.44132 19.8043C9.47092 19.8248 9.49406 19.8406 9.51029 19.8516L9.52938 19.8646L9.53494 19.8683L9.5367 19.8695L9.53732 19.8699ZM8.33335 8.34347C8.33335 7.42299 9.07955 6.6768 10 6.6768C10.9205 6.6768 11.6667 7.42299 11.6667 8.34347C11.6667 9.26394 10.9205 10.0101 10 10.0101C9.07955 10.0101 8.33335 9.26394 8.33335 8.34347ZM10 5.01013C8.15907 5.01013 6.66669 6.50252 6.66669 8.34347C6.66669 10.1844 8.15907 11.6768 10 11.6768C11.841 11.6768 13.3334 10.1844 13.3334 8.34347C13.3334 6.50252 11.841 5.01013 10 5.01013Z" />
</g>
<defs>
<clipPath id="clip0_639_4682">
<rect width="20" height="20" fill="white" transform="translate(0 0.0101318)"/>
</clipPath>
</defs>
</svg>
