<svg width="20" height="21" viewBox="0 0 20 21" fill="none" xmlns="http://www.w3.org/2000/svg">
<path fill-rule="evenodd" clip-rule="evenodd" d="M2.49999 4.17679C2.03975 4.17679 1.66666 4.54988 1.66666 5.01012C1.66666 5.47036 2.03975 5.84346 2.49999 5.84346H17.5C17.9602 5.84346 18.3333 5.47036 18.3333 5.01012C18.3333 4.54988 17.9602 4.17679 17.5 4.17679H2.49999ZM1.66666 10.0101C1.66666 9.54988 2.03975 9.17679 2.49999 9.17679H17.5C17.9602 9.17679 18.3333 9.54988 18.3333 10.0101C18.3333 10.4704 17.9602 10.8435 17.5 10.8435H2.49999C2.03975 10.8435 1.66666 10.4704 1.66666 10.0101ZM1.66666 15.0101C1.66666 14.5499 2.03975 14.1768 2.49999 14.1768H17.5C17.9602 14.1768 18.3333 14.5499 18.3333 15.0101C18.3333 15.4704 17.9602 15.8435 17.5 15.8435H2.49999C2.03975 15.8435 1.66666 15.4704 1.66666 15.0101Z" fill="currentColor"/>
</svg>
