<svg width="20" height="21" viewBox="0 0 20 21" fill="none" xmlns="http://www.w3.org/2000/svg">
<path d="M17.5 9.59349C17.5029 10.6934 17.2459 11.7784 16.75 12.7602C16.162 13.9366 15.2581 14.9261 14.1395 15.6179C13.021 16.3096 11.7319 16.6763 10.4167 16.6768C9.31678 16.6797 8.23176 16.4227 7.25 15.9268L2.5 17.5102L4.08333 12.7602C3.58744 11.7784 3.33047 10.6934 3.33333 9.59349C3.33384 8.27829 3.70051 6.9892 4.39227 5.87061C5.08402 4.75203 6.07355 3.84813 7.25 3.26016C8.23176 2.76426 9.31678 2.50729 10.4167 2.51016H10.8333C12.5703 2.60598 14.2109 3.33912 15.441 4.5692C16.671 5.79929 17.4042 7.43987 17.5 9.17682V9.59349Z" stroke="#111827" stroke-width="1.66667" stroke-linecap="round" stroke-linejoin="round"/>
</svg>
