<svg width="20" height="21" viewBox="0 0 20 21" fill="none" xmlns="http://www.w3.org/2000/svg">
<path fill-rule="evenodd" clip-rule="evenodd" d="M9.99998 2.51013C9.07951 2.51013 8.33331 3.25632 8.33331 4.1768C8.33331 5.09727 9.07951 5.84347 9.99998 5.84347C10.9205 5.84347 11.6666 5.09727 11.6666 4.1768C11.6666 3.25632 10.9205 2.51013 9.99998 2.51013ZM8.33331 10.0101C8.33331 9.08966 9.07951 8.34346 9.99998 8.34346C10.9205 8.34346 11.6666 9.08966 11.6666 10.0101C11.6666 10.9306 10.9205 11.6768 9.99998 11.6768C9.07951 11.6768 8.33331 10.9306 8.33331 10.0101ZM8.33331 15.8435C8.33331 14.923 9.07951 14.1768 9.99998 14.1768C10.9205 14.1768 11.6666 14.923 11.6666 15.8435C11.6666 16.7639 10.9205 17.5101 9.99998 17.5101C9.07951 17.5101 8.33331 16.7639 8.33331 15.8435Z" fill="#111827"/>
</svg>
