<svg width="20" height="21" viewBox="0 0 20 21" fill="none" xmlns="http://www.w3.org/2000/svg">
<path fill-rule="evenodd" clip-rule="evenodd" d="M4.16673 8.34344C3.24625 8.34344 2.50006 9.08964 2.50006 10.0101C2.50006 10.9306 3.24625 11.6768 4.16673 11.6768C5.0872 11.6768 5.8334 10.9306 5.8334 10.0101C5.8334 9.08964 5.0872 8.34344 4.16673 8.34344ZM8.3334 10.0101C8.3334 9.08964 9.07959 8.34344 10.0001 8.34344C10.9205 8.34344 11.6667 9.08964 11.6667 10.0101C11.6667 10.9306 10.9205 11.6768 10.0001 11.6768C9.07959 11.6768 8.3334 10.9306 8.3334 10.0101ZM14.1667 10.0101C14.1667 9.08964 14.9129 8.34344 15.8334 8.34344C16.7539 8.34344 17.5001 9.08964 17.5001 10.0101C17.5001 10.9306 16.7539 11.6768 15.8334 11.6768C14.9129 11.6768 14.1667 10.9306 14.1667 10.0101Z" fill="#111827"/>
</svg>
