<svg width="20" height="21" viewBox="0 0 20 21" fill="none" xmlns="http://www.w3.org/2000/svg">
<g clip-path="url(#clip0_639_4676)">
<path d="M17.8666 9.21848L10.2083 16.8768C9.27011 17.815 7.99763 18.3421 6.67081 18.3421C5.34399 18.3421 4.07151 17.815 3.13331 16.8768C2.19511 15.9386 1.66803 14.6661 1.66803 13.3393C1.66803 12.0125 2.19511 10.74 3.13331 9.80181L10.7916 2.14348C11.4171 1.51801 12.2654 1.16663 13.15 1.16663C14.0345 1.16663 14.8828 1.51801 15.5083 2.14348C16.1338 2.76895 16.4852 3.61727 16.4852 4.50181C16.4852 5.38636 16.1338 6.23468 15.5083 6.86015L7.84164 14.5185C7.52891 14.8312 7.10475 15.0069 6.66248 15.0069C6.2202 15.0069 5.79604 14.8312 5.48331 14.5185C5.17058 14.2057 4.99488 13.7816 4.99488 13.3393C4.99488 12.897 5.17058 12.4729 5.48331 12.1601L12.5583 5.09348" stroke="#111827" stroke-width="1.66667" stroke-linecap="round" stroke-linejoin="round"/>
</g>
<defs>
<clipPath id="clip0_639_4676">
<rect width="20" height="20" fill="white" transform="translate(0 0.0101318)"/>
</clipPath>
</defs>
</svg>
