<svg width="20" height="21" viewBox="0 0 20 21" fill="none" xmlns="http://www.w3.org/2000/svg">
<path fill-rule="evenodd" clip-rule="evenodd" d="M10.8334 4.17678C10.8334 3.71654 10.4603 3.34344 10 3.34344C9.5398 3.34344 9.16671 3.71654 9.16671 4.17678V9.17678H4.16671C3.70647 9.17678 3.33337 9.54987 3.33337 10.0101C3.33337 10.4703 3.70647 10.8434 4.16671 10.8434H9.16671V15.8434C9.16671 16.3037 9.5398 16.6768 10 16.6768C10.4603 16.6768 10.8334 16.3037 10.8334 15.8434V10.8434H15.8334C16.2936 10.8434 16.6667 10.4703 16.6667 10.0101C16.6667 9.54987 16.2936 9.17678 15.8334 9.17678H10.8334V4.17678Z" fill="#111827"/>
</svg>
