<svg width="20" height="21" viewBox="0 0 20 21" fill="none" xmlns="http://www.w3.org/2000/svg">
<path fill-rule="evenodd" clip-rule="evenodd" d="M3.33335 4.17682C3.33335 3.71658 3.70645 3.34349 4.16669 3.34349H15.8334C16.2936 3.34349 16.6667 3.71658 16.6667 4.17682V15.8435C16.6667 16.3037 16.2936 16.6768 15.8334 16.6768H4.16669C3.70645 16.6768 3.33335 16.3037 3.33335 15.8435V4.17682ZM4.16669 1.67682C2.78598 1.67682 1.66669 2.79611 1.66669 4.17682V15.8435C1.66669 17.2242 2.78598 18.3435 4.16669 18.3435H15.8334C17.2141 18.3435 18.3334 17.2242 18.3334 15.8435V4.17682C18.3334 2.79611 17.2141 1.67682 15.8334 1.67682H4.16669ZM10 5.84348C10.4603 5.84348 10.8334 6.21658 10.8334 6.67682V9.17682H13.3334C13.7936 9.17682 14.1667 9.54991 14.1667 10.0102C14.1667 10.4704 13.7936 10.8435 13.3334 10.8435H10.8334V13.3435C10.8334 13.8037 10.4603 14.1768 10 14.1768C9.53978 14.1768 9.16669 13.8037 9.16669 13.3435V10.8435H6.66669C6.20645 10.8435 5.83335 10.4704 5.83335 10.0102C5.83335 9.54991 6.20645 9.17682 6.66669 9.17682H9.16669V6.67682C9.16669 6.21658 9.53978 5.84348 10 5.84348Z" fill="#111827"/>
</svg>
