<svg width="20" height="21" viewBox="0 0 20 21" fill="none" xmlns="http://www.w3.org/2000/svg">
<path fill-rule="evenodd" clip-rule="evenodd" d="M4.90911 2.7374C4.90911 2.33574 5.23472 2.01013 5.63638 2.01013H14.3637C14.7653 2.01013 15.0909 2.33574 15.0909 2.7374V7.101H15.8182C16.3969 7.101 16.9518 7.33087 17.361 7.74004C17.7702 8.14921 18 8.70416 18 9.28281V12.9192C18 13.4978 17.7702 14.0528 17.361 14.462C16.9518 14.8711 16.3969 15.101 15.8182 15.101H15.0909V17.2828C15.0909 17.6845 14.7653 18.0101 14.3637 18.0101H5.63638C5.23472 18.0101 4.90911 17.6845 4.90911 17.2828V15.101H4.18185C3.60319 15.101 3.04824 14.8711 2.63907 14.462C2.2299 14.0528 2.00003 13.4978 2.00003 12.9192V9.28281C2.00003 8.70416 2.2299 8.14921 2.63907 7.74004C3.04824 7.33087 3.60319 7.101 4.18185 7.101H4.90911V2.7374ZM6.36366 14.3778C6.36366 14.3764 6.36367 14.3751 6.36367 14.3737C6.36367 14.3724 6.36366 14.371 6.36366 14.3697V12.1919H13.6364V16.5555H6.36366V14.3778ZM4.90911 13.6465H4.18185C3.98896 13.6465 3.80398 13.5698 3.66759 13.4334C3.5312 13.297 3.45458 13.1121 3.45458 12.9192V9.28281C3.45458 9.08993 3.5312 8.90495 3.66759 8.76856C3.80398 8.63216 3.98896 8.55554 4.18185 8.55554H5.62828L5.63638 8.55559L5.64449 8.55554H14.3556L14.3637 8.55559L14.3718 8.55554H15.8182C16.0111 8.55554 16.1961 8.63216 16.3325 8.76856C16.4689 8.90495 16.5455 9.08993 16.5455 9.28281V12.9192C16.5455 13.1121 16.4689 13.297 16.3325 13.4334C16.1961 13.5698 16.0111 13.6465 15.8182 13.6465H15.0909V11.4646C15.0909 11.0629 14.7653 10.7373 14.3637 10.7373H5.63638C5.23472 10.7373 4.90911 11.0629 4.90911 11.4646V13.6465ZM13.6364 3.46468V7.101H6.36366V3.46468H13.6364Z" fill="currentColor"/>
</svg>
