<svg width="20" height="21" viewBox="0 0 20 21" fill="none" xmlns="http://www.w3.org/2000/svg">
<g clip-path="url(#clip0_639_4729)">
<path fill-rule="evenodd" clip-rule="evenodd" d="M14.0305 2.72479C12.4493 1.85069 10.6269 1.51414 8.83776 1.76586C7.05294 2.01697 5.39776 2.83997 4.12038 4.11124L1.66664 6.41691V3.34347C1.66664 2.88323 1.29354 2.51014 0.833303 2.51014C0.373066 2.51014 -3.05176e-05 2.88323 -3.05176e-05 3.34347V8.34157V8.34347C-3.05176e-05 8.45277 0.0210134 8.55716 0.0592704 8.6528C0.0914524 8.73339 0.136774 8.81008 0.195335 8.87963C0.209222 8.89614 0.223738 8.9121 0.238846 8.92748C0.315236 9.0053 0.403351 9.06502 0.497733 9.10648C0.600399 9.1517 0.713919 9.1768 0.833303 9.1768H5.8333C6.29354 9.1768 6.66664 8.80371 6.66664 8.34347C6.66664 7.88323 6.29354 7.51014 5.8333 7.51014H2.93709L5.27062 5.31743C5.27674 5.31167 5.28278 5.30582 5.28873 5.29988C6.31163 4.27871 7.63869 3.61764 9.06997 3.41627C10.5012 3.21489 11.9592 3.48413 13.2242 4.18341C14.4891 4.8827 15.4925 5.97414 16.0833 7.29329C16.674 8.61244 16.82 10.0878 16.4993 11.4972C16.1785 12.9065 15.4085 14.1735 14.3051 15.1071C13.2017 16.0408 11.8248 16.5905 10.3818 16.6736C8.93886 16.7566 7.50797 16.3685 6.30477 15.5676C5.10157 14.7667 4.19124 13.5965 3.71095 12.2332C3.55801 11.7991 3.08214 11.5712 2.64806 11.7242C2.21397 11.8771 1.98606 12.353 2.13899 12.787C2.73935 14.4911 3.87726 15.9539 5.38126 16.955C6.88526 17.9561 8.67388 18.4413 10.4776 18.3375C12.2813 18.2337 14.0025 17.5465 15.3817 16.3794C16.7609 15.2124 17.7235 13.6287 18.1244 11.867C18.5253 10.1053 18.3428 8.26108 17.6044 6.61214C16.866 4.96319 15.6117 3.59889 14.0305 2.72479Z" fill="#111827"/>
</g>
<defs>
<clipPath id="clip0_639_4729">
<rect width="20" height="20" fill="white" transform="translate(0 0.0101318)"/>
</clipPath>
</defs>
</svg>
