<svg width="20" height="21" viewBox="0 0 20 21" fill="none" xmlns="http://www.w3.org/2000/svg">
<path fill-rule="evenodd" clip-rule="evenodd" d="M3.5774 3.58756C3.73368 3.43128 3.94564 3.34349 4.16666 3.34349H4.99999V6.67682C4.99999 7.13706 5.37309 7.51015 5.83332 7.51015H12.5C12.9602 7.51015 13.3333 7.13706 13.3333 6.67682C13.3333 6.21658 12.9602 5.84348 12.5 5.84348H6.66666V3.34349H12.9881L16.6667 7.022V15.8435C16.6667 16.0645 16.5789 16.2765 16.4226 16.4327C16.2663 16.589 16.0543 16.6768 15.8333 16.6768H15V10.8435C15 10.3832 14.6269 10.0102 14.1667 10.0102H5.83332C5.37309 10.0102 4.99999 10.3832 4.99999 10.8435V16.6768H4.16666C3.94564 16.6768 3.73368 16.589 3.5774 16.4327C3.42112 16.2765 3.33332 16.0645 3.33332 15.8435V4.17682C3.33332 3.9558 3.42112 3.74384 3.5774 3.58756ZM5.83332 18.3435H4.16666C3.50361 18.3435 2.86773 18.0801 2.39889 17.6113C1.93005 17.1424 1.66666 16.5065 1.66666 15.8435V4.17682C1.66666 3.51378 1.93005 2.87789 2.39889 2.40905C2.86773 1.94021 3.50362 1.67682 4.16666 1.67682H5.83332H13.3333C13.5543 1.67682 13.7663 1.76462 13.9226 1.9209L18.0892 6.08756C18.2455 6.24384 18.3333 6.4558 18.3333 6.67682V15.8435C18.3333 16.5065 18.0699 17.1424 17.6011 17.6113C17.1322 18.0801 16.4964 18.3435 15.8333 18.3435H14.1667H5.83332ZM13.3333 16.6768H6.66666V11.6768H13.3333V16.6768Z" fill="#111827"/>
</svg>
