<svg viewBox="0 0 20 21" fill="none" xmlns="http://www.w3.org/2000/svg">
<path fill-rule="evenodd" clip-rule="evenodd" d="M3.33335 9.17682C3.33335 5.95516 5.94503 3.34349 9.16669 3.34349C12.3883 3.34349 15 5.95516 15 9.17682C15 10.7485 14.3785 12.1749 13.3678 13.2239C13.3393 13.2458 13.3119 13.2698 13.2858 13.2959C13.2597 13.322 13.2357 13.3494 13.2137 13.3779C12.1648 14.3886 10.7383 15.0102 9.16669 15.0102C5.94503 15.0102 3.33335 12.3985 3.33335 9.17682ZM13.8481 15.0367C12.565 16.0631 10.9375 16.6768 9.16669 16.6768C5.02455 16.6768 1.66669 13.319 1.66669 9.17682C1.66669 5.03468 5.02455 1.67682 9.16669 1.67682C13.3088 1.67682 16.6667 5.03468 16.6667 9.17682C16.6667 10.9477 16.053 12.5752 15.0266 13.8582L18.0893 16.9209C18.4147 17.2463 18.4147 17.774 18.0893 18.0994C17.7639 18.4248 17.2362 18.4248 16.9108 18.0994L13.8481 15.0367Z" fill="#111827"/>
</svg>
