<svg width="20" height="21" viewBox="0 0 20 21" fill="none" xmlns="http://www.w3.org/2000/svg">
<g clip-path="url(#clip0_639_4674)">
<path fill-rule="evenodd" clip-rule="evenodd" d="M18.9226 1.08755C19.1089 1.27378 19.1885 1.52624 19.1616 1.76912C19.1541 1.83722 19.1381 1.90456 19.1138 1.96949L13.2866 18.6188C13.1737 18.9413 12.8754 19.1622 12.534 19.1761C12.1926 19.19 11.8773 18.9942 11.7385 18.6819L8.53537 11.4748L1.32826 8.27164C1.01603 8.13287 0.820143 7.81756 0.834071 7.47616C0.847999 7.13477 1.06892 6.83646 1.39142 6.72359L18.0407 0.896346C18.106 0.871892 18.1738 0.85592 18.2423 0.84843C18.2926 0.8429 18.343 0.841999 18.3929 0.845586C18.5859 0.859333 18.7751 0.939986 18.9226 1.08755ZM15.162 3.66969L3.92594 7.6023L8.98216 9.84951L15.162 3.66969ZM10.1607 11.028L16.3405 4.84821L12.4079 16.0842L10.1607 11.028Z" fill="#111827"/>
</g>
<defs>
<clipPath id="clip0_639_4674">
<rect width="20" height="20" fill="white" transform="translate(0 0.0101318)"/>
</clipPath>
</defs>
</svg>
