<svg width="20" height="21" viewBox="0 0 20 21" fill="none" xmlns="http://www.w3.org/2000/svg">
<g clip-path="url(#clip0_639_7007)">
<path fill-rule="evenodd" clip-rule="evenodd" d="M9.58249 0.0434382C9.14938 0.118055 8.74388 0.306427 8.40749 0.589272C7.84999 1.0676 7.55083 1.6551 7.51333 2.34344C7.48166 2.9251 7.4025 3.06677 7.06 3.15594C6.79583 3.22511 6.68666 3.18594 6.35749 2.9076C6.0325 2.6326 5.58083 2.39594 5.25 2.32677C4.87851 2.26343 4.49898 2.26343 4.12749 2.32677C3.98583 2.3551 3.75 2.4426 3.56666 2.53344C3.29833 2.66677 3.20166 2.73927 2.93166 3.00844C2.41333 3.52677 2.19833 4.03594 2.1975 4.74844C2.19666 5.44344 2.37333 5.90594 2.85166 6.4601C3.07166 6.7151 3.1 6.77177 3.1 6.95927C3.09813 7.05347 3.07646 7.14623 3.03641 7.23151C2.99635 7.31679 2.9388 7.39268 2.8675 7.45427C2.7575 7.54677 2.69249 7.56261 2.28999 7.59344C1.27166 7.67094 0.407495 8.37344 0.0949951 9.37677C-0.0175049 9.73844 -0.0175049 10.4151 0.0949951 10.7768C0.198328 11.1093 0.364162 11.4176 0.565829 11.6526C1.0625 12.2326 1.63666 12.5268 2.35 12.5651C2.53333 12.5743 2.73583 12.5984 2.79999 12.6176C3.02833 12.6851 3.16666 12.8768 3.16666 13.1276C3.16666 13.3151 3.13833 13.3718 2.91833 13.6268C2.44 14.1809 2.26333 14.6434 2.26416 15.3384C2.265 16.0509 2.48 16.5601 2.99833 17.0784C3.51666 17.5968 4.02583 17.8118 4.73833 17.8126C5.43333 17.8134 5.89583 17.6368 6.44999 17.1584C6.70499 16.9384 6.76166 16.9101 6.94916 16.9101C7.13166 16.9101 7.32499 17.0009 7.44416 17.1418C7.53083 17.2459 7.54666 17.3151 7.58416 17.7726C7.665 18.7451 8.38416 19.6093 9.36666 19.9151C9.72833 20.0276 10.405 20.0276 10.7667 19.9151C11.0871 19.8183 11.3849 19.6582 11.6425 19.4443C12.2225 18.9476 12.5167 18.3734 12.555 17.6601C12.5642 17.4768 12.5883 17.2743 12.6075 17.2101C12.675 16.9818 12.8667 16.8434 13.1175 16.8434C13.305 16.8434 13.3617 16.8718 13.6167 17.0918C14.1708 17.5701 14.6333 17.7468 15.3283 17.7459C16.0408 17.7451 16.55 17.5301 17.0683 17.0118C17.5867 16.4934 17.8017 15.9843 17.8025 15.2718C17.8033 14.5768 17.6267 14.1143 17.1483 13.5601C16.9283 13.3051 16.9 13.2484 16.9 13.0609C16.9 12.8101 17.0383 12.6184 17.2667 12.5509C17.3308 12.5318 17.5192 12.5076 17.6858 12.4976C18.7092 12.4334 19.5892 11.7243 19.905 10.7101C19.97 10.5001 19.9825 10.3876 19.9825 10.0101C19.9825 9.63261 19.97 9.5201 19.905 9.3101C19.808 8.98946 19.6479 8.69141 19.4342 8.43344C18.9358 7.85177 18.3583 7.5626 17.6167 7.52177C17.4703 7.51717 17.3245 7.50072 17.1808 7.4726C16.9733 7.4101 16.8333 7.17427 16.8333 6.88594C16.8333 6.70594 16.8625 6.6476 17.0817 6.39344C17.56 5.83927 17.7367 5.37677 17.7358 4.68177C17.735 3.96927 17.52 3.4601 17.0017 2.94177C16.7317 2.6726 16.635 2.6001 16.3667 2.46677C16.188 2.37722 15.9999 2.30791 15.8058 2.2601C15.4343 2.19676 15.0548 2.19676 14.6833 2.2601C14.3525 2.32927 13.9008 2.56594 13.5758 2.84094C13.2842 3.08844 13.1375 3.1526 12.9592 3.11177C12.6233 3.03677 12.5208 2.86594 12.4875 2.32427C12.4508 1.82042 12.262 1.33959 11.9459 0.945513C11.6298 0.551435 11.2014 0.262712 10.7175 0.117605C10.4167 0.0292715 9.85999 -0.0065618 9.58249 0.0434382ZM10.2758 1.72927C10.4592 1.79177 10.685 1.99927 10.7567 2.17094C10.785 2.23844 10.8208 2.4551 10.8367 2.65344C10.8958 3.38094 11.1992 3.96094 11.725 4.34927C12.585 4.9851 13.7283 4.92594 14.5492 4.20427C14.8408 3.94844 14.9908 3.87844 15.25 3.87844C15.3579 3.87521 15.4653 3.89408 15.5657 3.93389C15.666 3.97371 15.7571 4.03362 15.8335 4.10996C15.9098 4.18629 15.9697 4.27743 16.0095 4.37777C16.0494 4.47811 16.0682 4.58554 16.065 4.69344C16.065 4.94927 15.9958 5.10177 15.7533 5.37677C15.2075 5.9976 15.0317 6.73427 15.2442 7.5176C15.3425 7.88177 15.4183 8.04761 15.6017 8.29594C15.9908 8.82261 16.5775 9.12094 17.3275 9.17427C17.5417 9.18927 17.7717 9.22427 17.8392 9.2526C18.105 9.3651 18.3333 9.71511 18.3333 10.0109C18.3333 10.1568 18.2475 10.3951 18.1492 10.5251C17.9867 10.7376 17.8158 10.8118 17.4083 10.8468C16.7817 10.9009 16.4142 11.0384 16.015 11.3676C15.0458 12.1668 14.9525 13.5893 15.8058 14.5593C16.0617 14.8509 16.1317 15.0009 16.1317 15.2601C16.1349 15.368 16.116 15.4754 16.0762 15.5758C16.0364 15.6761 15.9765 15.7673 15.9001 15.8436C15.8238 15.9199 15.7327 15.9798 15.6323 16.0196C15.532 16.0595 15.4246 16.0783 15.3167 16.0751C15.0608 16.0751 14.9083 16.0059 14.6333 15.7634C14.3609 15.5198 14.0366 15.3414 13.685 15.2418C13.3117 15.1409 12.7617 15.1593 12.4058 15.2859C11.5067 15.6034 10.975 16.3284 10.9025 17.3343C10.8867 17.5501 10.8575 17.7693 10.8367 17.8209C10.775 17.9793 10.6308 18.1426 10.47 18.2368C10.34 18.3126 10.2783 18.3268 10.0667 18.3268C9.85499 18.3268 9.79333 18.3126 9.66333 18.2368C9.38833 18.0751 9.23333 17.7926 9.23333 17.4543C9.23333 17.3551 9.20916 17.1584 9.18083 17.0168C9.11131 16.691 8.96898 16.3852 8.76448 16.1222C8.55998 15.8593 8.29862 15.646 8 15.4984C7.60416 15.3076 7.33833 15.2443 6.92916 15.2443C6.37 15.2434 5.88499 15.4334 5.43333 15.8301C5.15833 16.0726 5.00583 16.1418 4.74999 16.1418C4.64209 16.145 4.53467 16.1261 4.43433 16.0863C4.33399 16.0465 4.24285 15.9866 4.16651 15.9103C4.09018 15.8339 4.03027 15.7428 3.99045 15.6424C3.95064 15.5421 3.93176 15.4347 3.93499 15.3268C3.93499 15.0709 4.00416 14.9184 4.24666 14.6434C5.11249 13.6593 5.02583 12.2376 4.05166 11.4343C3.64333 11.0976 3.27166 10.9618 2.62333 10.9134C2.29916 10.8893 2.21166 10.8701 2.09 10.7993C1.97863 10.7365 1.88345 10.6486 1.81203 10.5426C1.7406 10.4366 1.6949 10.3153 1.67855 10.1885C1.66221 10.0618 1.67567 9.9329 1.71788 9.81223C1.76008 9.69156 1.82986 9.5824 1.92166 9.49344C2.08833 9.32677 2.30583 9.24344 2.57416 9.24344C2.66333 9.24344 2.85166 9.21927 2.99333 9.19094C4.01 8.98177 4.77749 8.0226 4.77749 6.9601C4.77749 6.40927 4.57833 5.8976 4.19416 5.46094C3.93833 5.16927 3.86833 5.01927 3.86833 4.7601C3.8651 4.6522 3.88397 4.54478 3.92378 4.44444C3.9636 4.3441 4.02351 4.25296 4.09985 4.17662C4.17618 4.10029 4.26732 4.04038 4.36766 4.00056C4.468 3.96075 4.57543 3.94187 4.68333 3.9451C4.93916 3.9451 5.09166 4.01427 5.36666 4.25677C5.98749 4.8026 6.72416 4.97844 7.50749 4.76594C7.87166 4.6676 8.0375 4.59177 8.28583 4.40844C8.8125 4.01927 9.11083 3.4326 9.16416 2.6826C9.19583 2.2326 9.24166 2.09927 9.4325 1.9151C9.54056 1.8067 9.67745 1.73156 9.82693 1.69862C9.97642 1.66568 10.1322 1.67632 10.2758 1.72927ZM9.465 6.7276C8.525 6.87427 7.61916 7.48844 7.14083 8.30427C6.89446 8.71715 6.74053 9.17853 6.68962 9.65663C6.63871 10.1347 6.69203 10.6182 6.84593 11.0737C6.99982 11.5292 7.25062 11.9459 7.58106 12.2952C7.91149 12.6444 8.31371 12.9179 8.76 13.0968C9.1653 13.26 9.59881 13.3418 10.0357 13.3373C10.4727 13.3328 10.9044 13.2422 11.3063 13.0707C11.7082 12.8992 12.0723 12.6501 12.3778 12.3377C12.6833 12.0253 12.9242 11.6557 13.0867 11.2501C13.4082 10.4559 13.4085 9.56784 13.0875 8.77344C12.873 8.23633 12.5217 7.76469 12.0685 7.40535C11.6153 7.04602 11.076 6.81151 10.5042 6.7251C10.1601 6.66759 9.80879 6.66843 9.465 6.7276ZM10.4358 8.40427C10.7442 8.49047 11.0214 8.66319 11.2346 8.90199C11.4479 9.14079 11.5883 9.43568 11.6392 9.75177C11.7225 10.2959 11.5608 10.7876 11.1692 11.1801C10.835 11.5159 10.4558 11.6768 10 11.6768C9.57083 11.6768 9.19833 11.5284 8.87749 11.2309C7.76916 10.2009 8.49083 8.3476 10 8.3476C10.1192 8.3476 10.315 8.37344 10.4358 8.40427Z" fill="#111827"/>
</g>
<defs>
<clipPath id="clip0_639_7007">
<rect width="20" height="20" fill="white" transform="translate(0 0.0101318)"/>
</clipPath>
</defs>
</svg>
