<svg width="20" height="21" viewBox="0 0 20 21" fill="none" xmlns="http://www.w3.org/2000/svg">
<g clip-path="url(#clip0_639_4671)">
<path fill-rule="evenodd" clip-rule="evenodd" d="M13.3333 4.17678C13.3333 3.2563 14.0795 2.51011 15 2.51011C15.9204 2.51011 16.6666 3.2563 16.6666 4.17678C16.6666 5.09725 15.9204 5.84344 15 5.84344C14.4023 5.84344 13.8781 5.52887 13.584 5.05628C13.5769 5.04242 13.5694 5.02869 13.5614 5.01508C13.5534 5.00138 13.5451 4.98798 13.5365 4.9749C13.4069 4.73788 13.3333 4.46593 13.3333 4.17678ZM11.7913 5.08321C11.7101 4.79501 11.6666 4.49097 11.6666 4.17678C11.6666 2.33583 13.159 0.843445 15 0.843445C16.8409 0.843445 18.3333 2.33583 18.3333 4.17678C18.3333 6.01773 16.8409 7.51011 15 7.51011C14.0738 7.51011 13.2358 7.13236 12.6317 6.52251L8.20859 9.10374C8.28983 9.39192 8.33329 9.69594 8.33329 10.0101C8.33329 10.3241 8.28988 10.628 8.20872 10.916L12.6344 13.495C13.2383 12.8867 14.0751 12.5101 15 12.5101C16.8409 12.5101 18.3333 14.0025 18.3333 15.8434C18.3333 17.6844 16.8409 19.1768 15 19.1768C13.159 19.1768 11.6666 17.6844 11.6666 15.8434C11.6666 15.5279 11.7105 15.2226 11.7924 14.9333L7.36861 12.3555C6.7645 12.9655 5.92636 13.3434 4.99996 13.3434C3.15901 13.3434 1.66663 11.8511 1.66663 10.0101C1.66663 8.16916 3.15901 6.67678 4.99996 6.67678C5.92619 6.67678 6.76418 7.05455 7.36826 7.66443L11.7913 5.08321ZM6.43863 9.1718C6.43095 9.15865 6.42368 9.14538 6.41681 9.132C6.12281 8.65863 5.59819 8.34345 4.99996 8.34345C4.07948 8.34345 3.33329 9.08964 3.33329 10.0101C3.33329 10.9306 4.07948 11.6768 4.99996 11.6768C5.59817 11.6768 6.12277 11.3616 6.41678 10.8883C6.42358 10.875 6.43077 10.8619 6.43836 10.8489C6.44618 10.8355 6.45431 10.8223 6.46275 10.8095C6.59273 10.5722 6.66663 10.2998 6.66663 10.0101C6.66663 9.72041 6.59271 9.44798 6.46272 9.21064C6.45439 9.19798 6.44635 9.18504 6.43863 9.1718ZM13.57 15.0047C13.5524 15.0349 13.5332 15.0636 13.5125 15.0908C13.3979 15.3168 13.3333 15.5726 13.3333 15.8434C13.3333 16.7639 14.0795 17.5101 15 17.5101C15.9204 17.5101 16.6666 16.7639 16.6666 15.8434C16.6666 14.923 15.9204 14.1768 15 14.1768C14.4227 14.1768 13.914 14.4702 13.6149 14.9161C13.6019 14.9461 13.5869 14.9757 13.57 15.0047Z" fill="#111827"/>
</g>
<defs>
<clipPath id="clip0_639_4671">
<rect width="20" height="20" fill="white" transform="translate(0 0.0101318)"/>
</clipPath>
</defs>
</svg>
