<svg width="20" height="21" viewBox="0 0 20 21" fill="none" xmlns="http://www.w3.org/2000/svg">
<g clip-path="url(#clip0_639_4728)">
<path d="M5.83332 9.17682L9.16666 1.67682C9.8297 1.67682 10.4656 1.94021 10.9344 2.40905C11.4033 2.87789 11.6667 3.51378 11.6667 4.17682V7.51015H16.3833C16.6249 7.50742 16.8642 7.55724 17.0846 7.65617C17.3051 7.7551 17.5013 7.90076 17.6599 8.08308C17.8184 8.2654 17.9354 8.48 18.0028 8.71203C18.0701 8.94405 18.0862 9.18795 18.05 9.42682L16.9 16.9268C16.8397 17.3242 16.6379 17.6865 16.3316 17.9468C16.0253 18.2072 15.6353 18.348 15.2333 18.3435H5.83332M5.83332 9.17682V18.3435M5.83332 9.17682H3.33332C2.8913 9.17682 2.46737 9.35241 2.15481 9.66497C1.84225 9.97753 1.66666 10.4015 1.66666 10.8435V16.6768C1.66666 17.1188 1.84225 17.5428 2.15481 17.8553C2.46737 18.1679 2.8913 18.3435 3.33332 18.3435H5.83332" stroke="#111827" stroke-width="1.66667" stroke-linecap="round" stroke-linejoin="round"/>
</g>
<defs>
<clipPath id="clip0_639_4728">
<rect width="20" height="20" fill="white" transform="translate(0 0.0101318)"/>
</clipPath>
</defs>
</svg>
