<svg width="20" height="21" viewBox="0 0 20 21" fill="none" xmlns="http://www.w3.org/2000/svg">
<g clip-path="url(#clip0_639_4667)">
<path d="M14.1666 10.8435L10.8333 18.3435C10.1703 18.3435 9.53437 18.0801 9.06553 17.6113C8.59669 17.1424 8.3333 16.5065 8.3333 15.8435V12.5101H3.61663C3.37504 12.5129 3.13574 12.4631 2.91532 12.3641C2.6949 12.2652 2.49862 12.1195 2.34008 11.9372C2.18155 11.7549 2.06454 11.5403 1.99718 11.3083C1.92982 11.0762 1.91371 10.8324 1.94996 10.5935L3.09996 3.09348C3.16023 2.69606 3.3621 2.33381 3.66838 2.07348C3.97465 1.81314 4.36469 1.67227 4.76663 1.67681H14.1666M14.1666 10.8435V1.67681M14.1666 10.8435H16.3916C16.8633 10.8518 17.3215 10.6867 17.6795 10.3795C18.0374 10.0722 18.2701 9.64427 18.3333 9.17682V3.34348C18.2701 2.87603 18.0374 2.44807 17.6795 2.14083C17.3215 1.83359 16.8633 1.66847 16.3916 1.67681H14.1666" stroke="#111827" stroke-width="1.66667" stroke-linecap="round" stroke-linejoin="round"/>
</g>
<defs>
<clipPath id="clip0_639_4667">
<rect width="20" height="20" fill="white" transform="translate(0 0.0101318)"/>
</clipPath>
</defs>
</svg>
