<svg width="20" height="21" viewBox="0 0 20 21" fill="none" xmlns="http://www.w3.org/2000/svg">
<g clip-path="url(#clip0_639_4699)">
<path fill-rule="evenodd" clip-rule="evenodd" d="M7.7441 2.75419C7.90038 2.59791 8.11234 2.51011 8.33335 2.51011H11.6667C11.8877 2.51011 12.0997 2.59791 12.2559 2.75419C12.4122 2.91047 12.5 3.12243 12.5 3.34345V4.17678H7.50002V3.34345C7.50002 3.12243 7.58782 2.91047 7.7441 2.75419ZM5.83335 4.17678V3.34345C5.83335 2.6804 6.09675 2.04452 6.56559 1.57568C7.03443 1.10684 7.67031 0.843445 8.33335 0.843445H11.6667C12.3297 0.843445 12.9656 1.10684 13.4345 1.57568C13.9033 2.04452 14.1667 2.6804 14.1667 3.34345V4.17678H15.8334H17.5C17.9603 4.17678 18.3334 4.54987 18.3334 5.01011C18.3334 5.47035 17.9603 5.84345 17.5 5.84345H16.6667V16.6768C16.6667 17.3398 16.4033 17.9757 15.9345 18.4445C15.4656 18.9134 14.8297 19.1768 14.1667 19.1768H5.83335C5.17031 19.1768 4.53443 18.9134 4.06559 18.4445C3.59675 17.9757 3.33335 17.3398 3.33335 16.6768V5.84345H2.50002C2.03978 5.84345 1.66669 5.47035 1.66669 5.01011C1.66669 4.54987 2.03978 4.17678 2.50002 4.17678H4.16669H5.83335ZM5.00002 5.84345L6.66669 5.84344H13.3334L15 5.84345V16.6768C15 16.8978 14.9122 17.1098 14.7559 17.266C14.5997 17.4223 14.3877 17.5101 14.1667 17.5101H5.83335C5.61234 17.5101 5.40038 17.4223 5.2441 17.266C5.08782 17.1098 5.00002 16.8978 5.00002 16.6768V5.84345ZM9.16669 9.17678C9.16669 8.71654 8.79359 8.34345 8.33335 8.34345C7.87312 8.34345 7.50002 8.71654 7.50002 9.17678V14.1768C7.50002 14.637 7.87312 15.0101 8.33335 15.0101C8.79359 15.0101 9.16669 14.637 9.16669 14.1768V9.17678ZM12.5 9.17678C12.5 8.71654 12.1269 8.34345 11.6667 8.34345C11.2064 8.34345 10.8334 8.71654 10.8334 9.17678V14.1768C10.8334 14.637 11.2064 15.0101 11.6667 15.0101C12.1269 15.0101 12.5 14.637 12.5 14.1768V9.17678Z" fill="#111827"/>
</g>
<defs>
<clipPath id="clip0_639_4699">
<rect width="20" height="20" fill="white" transform="translate(0 0.0101318)"/>
</clipPath>
</defs>
</svg>
