<svg width="20" height="21" viewBox="0 0 20 21" fill="none" xmlns="http://www.w3.org/2000/svg">
<path fill-rule="evenodd" clip-rule="evenodd" d="M9.65002 1.7568C9.51752 1.82013 9.04252 2.2793 7.31168 4.01513C6.11752 5.21346 5.11252 6.24596 5.07918 6.31013C5.03585 6.39263 5.01752 6.50013 5.01752 6.6768C5.01668 6.8918 5.03002 6.9493 5.11085 7.0868C5.21918 7.2718 5.41835 7.42763 5.61335 7.48096C5.78252 7.52596 6.05585 7.50096 6.20418 7.42596C6.26585 7.39513 6.95752 6.73096 7.74085 5.9493L9.16585 4.52846L9.17418 8.6468L9.18335 12.7651L9.28418 12.9293C9.53835 13.3426 10.0642 13.4635 10.4567 13.2001C10.545 13.1401 10.6592 13.021 10.7159 12.9293L10.8167 12.7651L10.8259 8.6468L10.8342 4.52846L12.2592 5.9493C13.0425 6.73096 13.7358 7.39763 13.8 7.43096C13.8825 7.4743 13.99 7.49263 14.1667 7.49263C14.3817 7.49346 14.4392 7.48013 14.5767 7.3993C14.7617 7.29096 14.9175 7.0918 14.9708 6.8968C15.0159 6.72846 14.9909 6.45513 14.9158 6.30596C14.885 6.2443 13.8825 5.21346 12.6883 4.01513C10.9575 2.2793 10.4825 1.82013 10.35 1.7568C10.2408 1.70416 10.1212 1.67682 10 1.67682C9.87882 1.67682 9.75918 1.70416 9.65002 1.7568ZM2.24585 11.7243C2.04733 11.7906 1.8795 11.9264 1.77335 12.1068L1.68335 12.2601V16.2935L1.76168 16.5435C1.88489 16.9454 2.10473 17.3109 2.40197 17.6082C2.69921 17.9054 3.06478 18.1253 3.46668 18.2485L3.71668 18.3268H16.2834L16.5333 18.2485C16.9353 18.1253 17.3008 17.9054 17.5981 17.6082C17.8953 17.3109 18.1151 16.9454 18.2383 16.5435L18.3167 16.2935V12.2601L18.2259 12.1051C18.1516 11.9786 18.0455 11.8737 17.9182 11.8008C17.7909 11.7279 17.6467 11.6896 17.5 11.6896C17.3533 11.6896 17.2091 11.7279 17.0818 11.8008C16.9545 11.8737 16.8485 11.9786 16.7742 12.1051L16.6834 12.2601L16.6667 14.1601C16.6542 15.5776 16.6392 16.0843 16.6083 16.1543C16.5286 16.3268 16.3992 16.4716 16.2367 16.5701L16.0833 16.6601H3.91668L3.76335 16.5701C3.60084 16.4716 3.47144 16.3268 3.39168 16.1543C3.36085 16.0843 3.34585 15.5776 3.33335 14.1601L3.31668 12.2601L3.22668 12.1068C3.1316 11.9405 2.98237 11.8118 2.80388 11.7422C2.62539 11.6726 2.42843 11.6662 2.24585 11.7243Z" fill="#111827"/>
</svg>
