<svg width="20" height="21" viewBox="0 0 20 21" fill="none" xmlns="http://www.w3.org/2000/svg">
<path fill-rule="evenodd" clip-rule="evenodd" d="M7.5 5.84348C7.5 4.46277 8.61929 3.34349 10 3.34349C11.3807 3.34349 12.5 4.46277 12.5 5.84348C12.5 7.2242 11.3807 8.34348 10 8.34348C8.61929 8.34348 7.5 7.2242 7.5 5.84348ZM10 1.67682C7.69881 1.67682 5.83333 3.5423 5.83333 5.84348C5.83333 8.14467 7.69881 10.0102 10 10.0102C12.3012 10.0102 14.1667 8.14467 14.1667 5.84348C14.1667 3.5423 12.3012 1.67682 10 1.67682ZM6.66667 11.6768C5.5616 11.6768 4.50179 12.1158 3.72039 12.8972C2.93899 13.6786 2.5 14.7384 2.5 15.8435V17.5102C2.5 17.9704 2.8731 18.3435 3.33333 18.3435C3.79357 18.3435 4.16667 17.9704 4.16667 17.5102V15.8435C4.16667 15.1804 4.43006 14.5446 4.8989 14.0757C5.36774 13.6069 6.00363 13.3435 6.66667 13.3435H13.3333C13.9964 13.3435 14.6323 13.6069 15.1011 14.0757C15.5699 14.5446 15.8333 15.1804 15.8333 15.8435V17.5102C15.8333 17.9704 16.2064 18.3435 16.6667 18.3435C17.1269 18.3435 17.5 17.9704 17.5 17.5102V15.8435C17.5 14.7384 17.061 13.6786 16.2796 12.8972C15.4982 12.1158 14.4384 11.6768 13.3333 11.6768H6.66667Z" fill="#111827"/>
</svg>
