<svg width="20" height="21" viewBox="0 0 20 21" fill="none" xmlns="http://www.w3.org/2000/svg">
<g clip-path="url(#clip0_639_4710)">
<path fill-rule="evenodd" clip-rule="evenodd" d="M4.99994 5.84348C4.99994 4.46277 6.11923 3.34349 7.49994 3.34349C8.88065 3.34349 9.99994 4.46277 9.99994 5.84348C9.99994 7.2242 8.88065 8.34348 7.49994 8.34348C6.11923 8.34348 4.99994 7.2242 4.99994 5.84348ZM7.49994 1.67682C5.19875 1.67682 3.33327 3.5423 3.33327 5.84348C3.33327 8.14467 5.19875 10.0102 7.49994 10.0102C9.80113 10.0102 11.6666 8.14467 11.6666 5.84348C11.6666 3.5423 9.80113 1.67682 7.49994 1.67682ZM12.526 2.41179C12.6401 1.96594 13.0941 1.69704 13.54 1.8112C14.4362 2.04068 15.2306 2.56193 15.7979 3.29277C16.3652 4.02361 16.6731 4.92248 16.6731 5.84766C16.6731 6.77283 16.3652 7.6717 15.7979 8.40254C15.2306 9.13338 14.4362 9.65463 13.54 9.88412C13.0941 9.99827 12.6401 9.72938 12.526 9.28352C12.4118 8.83767 12.6807 8.38369 13.1266 8.26953C13.6643 8.13184 14.141 7.81909 14.4813 7.38059C14.8217 6.94208 15.0065 6.40276 15.0065 5.84766C15.0065 5.29255 14.8217 4.75323 14.4813 4.31472C14.141 3.87622 13.6643 3.56347 13.1266 3.42578C12.6807 3.31162 12.4118 2.85764 12.526 2.41179ZM4.16661 11.6768C3.06154 11.6768 2.00173 12.1158 1.22033 12.8972C0.438926 13.6786 -6.10352e-05 14.7384 -6.10352e-05 15.8435V17.5102C-6.10352e-05 17.9704 0.373035 18.3435 0.833272 18.3435C1.29351 18.3435 1.66661 17.9704 1.66661 17.5102V15.8435C1.66661 15.1804 1.93 14.5446 2.39884 14.0757C2.86768 13.6069 3.50356 13.3435 4.16661 13.3435H10.8333C11.4963 13.3435 12.1322 13.6069 12.601 14.0757C13.0699 14.5446 13.3333 15.1804 13.3333 15.8435V17.5102C13.3333 17.9704 13.7064 18.3435 14.1666 18.3435C14.6268 18.3435 14.9999 17.9704 14.9999 17.5102V15.8435C14.9999 14.7384 14.561 13.6786 13.7796 12.8972C12.9981 12.1158 11.9383 11.6768 10.8333 11.6768H4.16661ZM16.8749 11.8116C16.4293 11.6966 15.9748 11.9645 15.8597 12.4102C15.7447 12.8558 16.0126 13.3103 16.4583 13.4254C16.9946 13.5638 17.4698 13.8765 17.8091 14.3143C18.1484 14.752 18.3328 15.29 18.3333 15.8438V17.5102C18.3333 17.9704 18.7064 18.3435 19.1666 18.3435C19.6268 18.3435 19.9999 17.9704 19.9999 17.5102V15.8435L19.9999 15.8429C19.9993 14.9197 19.692 14.0228 19.1264 13.2932C18.5607 12.5636 17.7688 12.0424 16.8749 11.8116Z" fill="#111827"/>
</g>
<defs>
<clipPath id="clip0_639_4710">
<rect width="20" height="20" fill="white" transform="translate(0 0.0101318)"/>
</clipPath>
</defs>
</svg>
