<svg width="20" height="21" viewBox="0 0 20 21" fill="none" xmlns="http://www.w3.org/2000/svg">
<g clip-path="url(#clip0_639_4927)">
<path fill-rule="evenodd" clip-rule="evenodd" d="M9.99998 2.51011C5.85784 2.51011 2.49998 5.86798 2.49998 10.0101C2.49998 14.1522 5.85784 17.5101 9.99998 17.5101C14.1421 17.5101 17.5 14.1522 17.5 10.0101C17.5 5.86798 14.1421 2.51011 9.99998 2.51011ZM0.833313 10.0101C0.833313 4.9475 4.93737 0.843445 9.99998 0.843445C15.0626 0.843445 19.1666 4.9475 19.1666 10.0101C19.1666 15.0727 15.0626 19.1768 9.99998 19.1768C4.93737 19.1768 0.833313 15.0727 0.833313 10.0101ZM13.0892 6.92086C13.4147 7.24629 13.4147 7.77393 13.0892 8.09937L11.1785 10.0101L13.0892 11.9209C13.4147 12.2463 13.4147 12.7739 13.0892 13.0994C12.7638 13.4248 12.2362 13.4248 11.9107 13.0994L9.99998 11.1886L8.08924 13.0994C7.7638 13.4248 7.23616 13.4248 6.91073 13.0994C6.58529 12.7739 6.58529 12.2463 6.91073 11.9209L8.82147 10.0101L6.91073 8.09937C6.58529 7.77393 6.58529 7.24629 6.91073 6.92086C7.23616 6.59542 7.7638 6.59542 8.08924 6.92086L9.99998 8.8316L11.9107 6.92086C12.2362 6.59542 12.7638 6.59542 13.0892 6.92086Z" fill="#111827"/>
</g>
<defs>
<clipPath id="clip0_639_4927">
<rect width="20" height="20" fill="white" transform="translate(0 0.0101318)"/>
</clipPath>
</defs>
</svg>
