<svg width="20" height="21" viewBox="0 0 20 21" fill="none" xmlns="http://www.w3.org/2000/svg">
<path fill-rule="evenodd" clip-rule="evenodd" d="M5.58928 4.4209C5.26384 4.09546 4.7362 4.09546 4.41076 4.4209C4.08533 4.74633 4.08533 5.27397 4.41076 5.59941L8.82151 10.0102L4.41076 14.4209C4.08533 14.7463 4.08533 15.274 4.41076 15.5994C4.7362 15.9248 5.26384 15.9248 5.58928 15.5994L10 11.1887L14.4108 15.5994C14.7362 15.9248 15.2638 15.9248 15.5893 15.5994C15.9147 15.274 15.9147 14.7463 15.5893 14.4209L11.1785 10.0102L15.5893 5.59941C15.9147 5.27397 15.9147 4.74633 15.5893 4.4209C15.2638 4.09546 14.7362 4.09546 14.4108 4.4209L10 8.83164L5.58928 4.4209Z" fill="#111827"/>
</svg>
